<svg id="_0158_data_maintenance" xmlns="http://www.w3.org/2000/svg" viewBox="0 0 500 500" data-imageid="data-maintenance-3" imageName="Data Maintenance" class="illustrations_image" style="width: 151px;"><defs><style>.cls-1_data-maintenance-3{fill:#fff;}.cls-2_data-maintenance-3{fill:#f4a28c;}.cls-3_data-maintenance-3{opacity:.46;}.cls-3_data-maintenance-3,.cls-4_data-maintenance-3,.cls-5_data-maintenance-3,.cls-6_data-maintenance-3{fill:none;}.cls-7_data-maintenance-3{fill:#a5a5a5;}.cls-8_data-maintenance-3{fill:#e6e6e6;}.cls-4_data-maintenance-3{opacity:.03;}.cls-5_data-maintenance-3{opacity:.07;}.cls-6_data-maintenance-3{opacity:.08;}.cls-9_data-maintenance-3{fill:#24285b;}.cls-10_data-maintenance-3{fill:#000001;}.cls-11_data-maintenance-3{fill:#ffd200;}.cls-12_data-maintenance-3{fill:#68e1fd;}</style></defs><g id="sd_data-maintenance-3" class="cls-4_data-maintenance-3"><ellipse class="cls-10_data-maintenance-3" cx="250" cy="446.92" rx="233.68" ry="27.13"/></g><g id="server_data-maintenance-3"><rect class="cls-8_data-maintenance-3" x="367.59" y="373.28" width="70.46" height="33.84"/><rect class="cls-7_data-maintenance-3" x="367.59" y="407.7" width="98.92" height="33.84"/><rect class="cls-9_data-maintenance-3" x="184.46" y="93.82" width="211.12" height="349.22"/><g class="cls-5_data-maintenance-3"><rect class="cls-1_data-maintenance-3" x="201.86" y="111.09" width="175.9" height="56.17" rx="12.2" ry="12.2"/></g><rect class="cls-12_data-maintenance-3 targetColor" x="234" y="73.77" width="107.47" height="20.06" style="fill: rgb(104, 225, 253);"/><circle class="cls-12_data-maintenance-3 targetColor" cx="345.7" cy="139.25" r="15.02" style="fill: rgb(104, 225, 253);"/><rect class="cls-1_data-maintenance-3" x="219.88" y="132.11" width="88.55" height="14.27"/><g class="cls-5_data-maintenance-3"><rect class="cls-1_data-maintenance-3" x="201.86" y="196.46" width="175.9" height="56.17" rx="12.2" ry="12.2"/></g><circle class="cls-12_data-maintenance-3 targetColor" cx="345.7" cy="224.61" r="15.02" style="fill: rgb(104, 225, 253);"/><rect class="cls-1_data-maintenance-3" x="219.88" y="217.47" width="88.55" height="14.27"/><g class="cls-5_data-maintenance-3"><rect class="cls-1_data-maintenance-3" x="201.86" y="281.82" width="175.9" height="56.17" rx="12.2" ry="12.2"/></g><circle class="cls-12_data-maintenance-3 targetColor" cx="345.7" cy="309.98" r="15.02" style="fill: rgb(104, 225, 253);"/><rect class="cls-1_data-maintenance-3" x="219.88" y="302.84" width="88.55" height="14.27"/><g class="cls-5_data-maintenance-3"><rect class="cls-1_data-maintenance-3" x="201.86" y="367.19" width="175.9" height="56.17" rx="12.2" ry="12.2"/></g><circle class="cls-12_data-maintenance-3 targetColor" cx="345.7" cy="395.34" r="15.02" style="fill: rgb(104, 225, 253);"/><rect class="cls-1_data-maintenance-3" x="219.88" y="388.2" width="88.55" height="14.27"/><g class="cls-6_data-maintenance-3"><path class="cls-10_data-maintenance-3" d="m221.06,304.1s49.36,11.05,68.75,45.39c19.39,34.33-60.09,93.55-60.09,93.55l-55.03.18-12.7-57.52,28.69-40.92,30.38-40.68Z"/></g></g><g id="person_data-maintenance-3"><path class="cls-12_data-maintenance-3 targetColor" d="m120.45,298s-64.51-6.84-62.07,27.29c2.44,34.13,38.59,106.84,38.59,106.84h79.22s60.13-92.22,30.88-121.88c-29.25-29.66-35.92-4.2-86.62-12.26Z" style="fill: rgb(104, 225, 253);"/><polygon class="cls-9_data-maintenance-3" points="96.85 443.22 145.08 456.23 187.85 434.52 194.35 422.95 151.23 422.95 82.63 422.95 96.85 443.22"/><path class="cls-12_data-maintenance-3 targetColor" d="m89.33,334.99c6.04-20.21-5.37-42.28-26.96-26.11-14.8,11.08-32.35,46.42-33.26,79.13-2.1,75.18,90.12-5.7,101.58-48.75l-11.35-6.7s-19.12,36.06-39.96,43.88c-15.03,5.63,1.03-11.58,9.95-41.44Z" style="fill: rgb(104, 225, 253);"/><g class="cls-3_data-maintenance-3"><path class="cls-1_data-maintenance-3" d="m89.33,334.99c6.04-20.21-5.37-42.28-26.96-26.11-14.8,11.08-32.35,46.42-33.26,79.13-2.1,75.18,90.12-5.7,101.58-48.75l-11.35-6.7s-19.12,36.06-39.96,43.88c-15.03,5.63,1.03-11.58,9.95-41.44Z"/></g><path class="cls-1_data-maintenance-3" d="m120.45,298s-9.92,15.61-.2,21.2c9.73,5.59,12.84-.79,12.84-.79,0,0,7.25,8.55,13.72,1.92,6.47-6.63,5.57-19.82-1.04-25.9-6.61-6.08-25.33,3.57-25.33,3.57Z"/><path class="cls-2_data-maintenance-3" d="m122.71,298.51c.42,2.88.77,5.77.87,8.68.13,3.99,1.41,9.92,7.71,11.09,9.71,1.8,12.29-13.56,12.29-13.56,0,0,6.11-14.39-4.4-16.37-9.47-1.78-18.4-3.05-16.46,10.16Z"/><g class="cls-6_data-maintenance-3"><path class="cls-10_data-maintenance-3" d="m160.15,320.17s-6.02,12.65,9.21,38.59c8.72,14.85-18.14,39.63-18.14,39.63l-66.82,6.69,12.56,27.05h79.22s34.81-56.62,37.5-85.76c2.69-29.14-53.53-26.2-53.53-26.2Z"/></g><path class="cls-2_data-maintenance-3" d="m142.97,305.33s.56-4.67,4.62-4.47c4.07.2,2.47,8.91-4.62,4.47Z"/><path class="cls-2_data-maintenance-3" d="m125.05,302.73s1.43-4.48-2.36-5.98c-3.78-1.51-5.94,7.09,2.36,5.98Z"/><polygon class="cls-11_data-maintenance-3" points="100 418.83 94.41 367.9 179.93 367.9 171.4 421.44 172.61 428.3 99.09 428.88 100 418.83"/><path class="cls-12_data-maintenance-3 targetColor" d="m134.42,443.22s16.23,5.67,10.66,13.01c-5.57,7.34-14.39-4.85-14.39-4.85l3.73-8.16Z" style="fill: rgb(104, 225, 253);"/><g class="cls-6_data-maintenance-3"><path class="cls-10_data-maintenance-3" d="m179.93,367.9l-16.96,22.39c-9.89,13.06-23.26,23.09-38.56,28.93l-25.32,9.66,67.8-.54,5.72-.05-1.22-6.86,8.53-53.54Z"/></g><path class="cls-9_data-maintenance-3" d="m122.71,298.51s-15.74-2.26-8.7-13.83c7.04-11.57,8.59-2.9,11.92-11.87,3.32-8.97,6.31-10.7,11.19-6.87,4.87,3.83.15,11.85,7.52,9.6,7.37-2.25,12.4-4.36,13.8,1.74,1.4,6.1.03,9.02-4.74,11.12-4.77,2.09,2.7,10.31-9.22,13.66-11.93,3.35-18.13-9.68-18.13-9.68l-3.63,6.13Z"/><path class="cls-9_data-maintenance-3" d="m134.92,440.39s-65.59-33.48-71.18-15.67c-5.59,17.82,39.61,28.17,68.79,29.24l2.39-13.57Z"/><circle class="cls-1_data-maintenance-3" cx="138.01" cy="395.33" r="7.33"/><path class="cls-9_data-maintenance-3" d="m150.85,443.01s52.31-51.83,63.05-36.56-29.17,38.87-56.65,48.76l-6.4-12.2Z"/><path class="cls-12_data-maintenance-3 targetColor" d="m152.9,446.92s-15.5,13.81-6.53,17.87c8.97,4.06,10.88-9.58,10.88-9.58l-4.35-8.29Z" style="fill: rgb(104, 225, 253);"/><path class="cls-12_data-maintenance-3 targetColor" d="m160.15,320.17c-1.21-12.13,7.6-22.94,19.72-24.24,11.82-1.27,27.37-.49,41.19,8.17,26.81,16.8,56.47,30.21,49.16,60.68-7.31,30.47-60.53,43.26-60.53,43.26l-7.09-11.57s46.91-15.84,38.38-40.63c-7.69-22.33-75.76,14.98-80.81-35.68Z" style="fill: rgb(104, 225, 253);"/><g class="cls-3_data-maintenance-3"><path class="cls-1_data-maintenance-3" d="m160.15,320.17c-1.21-12.13,7.6-22.94,19.72-24.24,11.82-1.27,27.37-.49,41.19,8.17,26.81,16.8,56.47,30.21,49.16,60.68-7.31,30.47-60.53,43.26-60.53,43.26l-7.09-11.57s46.91-15.84,38.38-40.63c-7.69-22.33-75.76,14.98-80.81-35.68Z"/></g><path class="cls-2_data-maintenance-3" d="m203.77,398.39s-14.8,10.01-9.42,12.76c5.38,2.76,14.44-4.57,14.44-4.57l-5.03-8.19Z"/><path class="cls-2_data-maintenance-3" d="m121.33,333.73s5.3-12.99,12.56-11.94c7.26,1.05-4.07,16.96-4.07,16.96l-8.49-5.01Z"/></g><g id="up_data-maintenance-3"><rect class="cls-11_data-maintenance-3" x="317.9" y="25.95" width="122.03" height="87.37"/><path class="cls-1_data-maintenance-3" d="m415.34,79.84c0-5.57-4.52-10.08-10.08-10.08-.55,0-1.09.06-1.62.14-2.29-4.26-6.79-7.16-11.97-7.16-.17,0-.33.02-.5.03.31-1.25.5-2.56.5-3.91,0-8.91-7.22-16.14-16.14-16.14s-16.14,7.22-16.14,16.14c0,1.35.18,2.66.5,3.91-.17,0-.33-.03-.5-.03-7.51,0-13.59,6.09-13.59,13.59s6.09,13.59,13.59,13.59h47.18v-.09c4.94-.64,8.77-4.86,8.77-9.99Z"/><polygon class="cls-9_data-maintenance-3" points="391.84 84.2 380.12 67.55 368.4 84.2 374.28 84.2 374.28 97.12 385.8 97.12 385.8 84.2 391.84 84.2"/></g><g id="down_data-maintenance-3"><rect class="cls-11_data-maintenance-3" x="33.39" y="151.95" width="122.03" height="87.37"/><path class="cls-1_data-maintenance-3" d="m130.83,205.84c0-5.57-4.52-10.08-10.08-10.08-.55,0-1.09.06-1.62.14-2.29-4.26-6.79-7.16-11.97-7.16-.17,0-.33.02-.5.03.31-1.25.5-2.56.5-3.91,0-8.91-7.22-16.14-16.14-16.14s-16.14,7.22-16.14,16.14c0,1.35.18,2.66.5,3.91-.17,0-.33-.03-.5-.03-7.51,0-13.59,6.09-13.59,13.59s6.09,13.59,13.59,13.59h47.18v-.09c4.94-.64,8.77-4.86,8.77-9.99Z"/><polygon class="cls-9_data-maintenance-3" points="83.89 211.64 95.61 228.29 107.33 211.64 101.45 211.64 101.45 198.72 89.93 198.72 89.93 211.64 83.89 211.64"/></g></svg>