<svg version="1.1" id="Layer_1" xmlns="http://www.w3.org/2000/svg" xmlns:xlink="http://www.w3.org/1999/xlink" x="0px" y="0px" viewBox="0 0 500 500" style="width: 151px;" xml:space="preserve" data-imageid="data-maintenance-8" imageName="Data Maintenance" class="illustrations_image">
<style type="text/css">
	.st0_data-maintenance-8{fill:#92ADD8;}
	.st1_data-maintenance-8{fill:#053855;}
	.st2_data-maintenance-8{opacity:0.63;fill:url(#SVGID_1_);enable-background:new    ;}
	.st3_data-maintenance-8{opacity:0.63;fill:url(#SVGID_00000084504624533578668870000007986354101991442623_);enable-background:new    ;}
	.st4_data-maintenance-8{fill:#4A42A4;}
	.st5_data-maintenance-8{opacity:0.4;fill:#053855;enable-background:new    ;}
	.st6_data-maintenance-8{opacity:0.3;}
	.st7_data-maintenance-8{fill:#F2F2F2;}
	.st8_data-maintenance-8{fill:#7374B7;}
	.st9_data-maintenance-8{fill:#FFA86A;}
	.st10_data-maintenance-8{fill:#68E1FD;}
	.st11_data-maintenance-8{opacity:0.1;fill:#053855;enable-background:new    ;}
	.st12_data-maintenance-8{opacity:0.44;fill:#053855;enable-background:new    ;}
	.st13_data-maintenance-8{fill:#EA6647;}
	.st14_data-maintenance-8{opacity:0.5;fill:#F2F2F2;enable-background:new    ;}
</style>
<path id="Base_data-maintenance-8" class="st0_data-maintenance-8" d="M483.2,258L304.5,154c-2.6-1.5-5.8-1.5-8.5,0L28.7,307c-4,2.3-5.4,7.5-3.1,11.5&#10;&#9;c0.7,1.3,1.8,2.4,3.1,3.1l170.9,98.7c8.5,4.9,19.1,4.9,27.6,0l256-147.8c4-2.4,5.4-7.5,3-11.6C485.6,259.8,484.5,258.7,483.2,258z"/>
<g id="Lines_data-maintenance-8">
	<polygon class="st1_data-maintenance-8" points="225.5,380.1 122.4,320.7 122.9,319.8 225.5,378.9 371.9,294.2 372.4,295.1 &#9;"/>
	<rect x="251.1" y="300.1" class="st1_data-maintenance-8" width="1" height="64.2"/>
</g>
<g id="Shadow_data-maintenance-8">
	
		<linearGradient id="SVGID_1_-data-maintenance-8" gradientUnits="userSpaceOnUse" x1="428.5268" y1="177.5241" x2="405.6068" y2="215.9341" gradientTransform="matrix(1 0 0 -1 0 502)">
		<stop offset="0" style="stop-color:#F2F2F2;stop-opacity:0"/>
		<stop offset="0.99" style="stop-color:#FFA86A"/>
	</linearGradient>
	<path class="st2_data-maintenance-8" d="M462.8,283.4c-25.9-14.8-52.6-30.9-65.2-38.8l-56,32.7c12.5,6.5,24.1,15.4,35.7,22.1&#10;&#9;&#9;c10.5,6,20.9,12.2,31.3,18.5C427.9,308.3,445.1,295.4,462.8,283.4z"/>
	
		<linearGradient id="SVGID_00000041976167582443944330000000185378060797976214_-data-maintenance-8" gradientUnits="userSpaceOnUse" x1="177.4504" y1="130.5762" x2="154.5304" y2="168.9762" gradientTransform="matrix(1 0 0 -1 0 502)">
		<stop offset="0" style="stop-color:#F2F2F2;stop-opacity:0"/>
		<stop offset="0.99" style="stop-color:#FFA86A"/>
	</linearGradient>
	<path style="opacity:0.63;fill:url(#SVGID_00000041976167582443944330000000185378060797976214_);enable-background:new    ;" d="&#10;&#9;&#9;M116.6,352.1c22.4,12.9,44.6,26.4,66.5,40.2c18.1-8.8,36.3-18.5,58.2-34.5c-31.5-16.4-84.9-48.3-104.4-60.5l-56,32.7&#10;&#9;&#9;C93.3,336.6,105,345.5,116.6,352.1z"/>
</g>
<g id="Server_2_data-maintenance-8">
	<polyline class="st4_data-maintenance-8" points="445.8,202.1 445.8,274.3 389.8,306.6 344.3,279.5 344.3,212.4 &#9;"/>
	<polygon class="st4_data-maintenance-8" points="389.8,306.6 389.8,235.3 344.3,208.6 344.3,279.5 &#9;"/>
	<polygon class="st5_data-maintenance-8" points="389.8,306.6 389.8,235.3 344.3,208.6 344.3,279.5 &#9;"/>
	<polygon class="st4_data-maintenance-8" points="399.7,174.8 445.8,202.1 389.8,235.3 344.3,208.6 &#9;"/>
	<g class="st6_data-maintenance-8">
		<polygon class="st7_data-maintenance-8" points="399.7,174.8 445.8,202.1 389.8,235.3 344.3,208.6 &#9;&#9;"/>
	</g>
	<polygon class="st8_data-maintenance-8" points="438.5,213.9 438.5,228.9 396.5,252.8 396.5,238.1 &#9;"/>
	<ellipse transform="matrix(0.2934 -0.956 0.956 0.2934 51.2907 555.3148)" class="st9_data-maintenance-8" cx="401.3" cy="243" rx="1.8" ry="1.1"/>
	<ellipse transform="matrix(0.2934 -0.956 0.956 0.2934 55.831 557.2404)" class="st7_data-maintenance-8" cx="404.9" cy="240.9" rx="1.8" ry="1.1"/>
	<polygon class="st7_data-maintenance-8" points="408.9,239.3 408.8,239.1 434.7,224.2 434.8,224.5 &#9;"/>
	<polygon class="st8_data-maintenance-8" points="439.4,234.9 439.4,249.8 397.5,273.7 397.5,259.1 &#9;"/>
	<ellipse transform="matrix(0.2934 -0.956 0.956 0.2934 31.9614 571.0635)" class="st9_data-maintenance-8" cx="402.3" cy="263.9" rx="1.8" ry="1.1"/>
	<ellipse transform="matrix(0.2934 -0.956 0.956 0.2934 36.4905 572.993)" class="st7_data-maintenance-8" cx="405.8" cy="261.8" rx="1.8" ry="1.1"/>
	<polygon class="st7_data-maintenance-8" points="409.9,260.3 409.8,260.1 435.7,245.2 435.8,245.4 &#9;"/>
	<polygon class="st8_data-maintenance-8" points="439.4,255.8 439.4,270.8 397.5,294.7 397.5,280 &#9;"/>
	<ellipse transform="matrix(0.2934 -0.956 0.956 0.2934 11.9641 585.8438)" class="st9_data-maintenance-8" cx="402.3" cy="284.8" rx="1.8" ry="1.1"/>
	<ellipse transform="matrix(0.2934 -0.956 0.956 0.2934 16.4931 587.7733)" class="st7_data-maintenance-8" cx="405.8" cy="282.7" rx="1.8" ry="1.1"/>
	<polygon class="st7_data-maintenance-8" points="409.9,281.2 409.8,281 435.7,266.1 435.8,266.3 &#9;"/>
	<polygon class="st1_data-maintenance-8" points="389.6,260.3 389.5,260.3 344.2,233.5 344.3,233.3 389.6,260 445.7,227.5 445.8,227.7 &#9;"/>
	<polygon class="st1_data-maintenance-8" points="389.6,281.2 389.5,281.2 344.2,254.5 344.3,254.2 389.6,281 445.7,248.4 445.8,248.6 &#9;"/>
</g>
<g id="Laptop_data-maintenance-8">
	<polyline class="st7_data-maintenance-8" points="433,197.2 433,198.6 432.3,199.5 &#9;"/>
	<path class="st10_data-maintenance-8 targetColor" d="M404.1,179.9l28,17.2c0.8,0.5,1.1,1.6,0.6,2.4c-0.2,0.3-0.4,0.5-0.6,0.6l-42.4,24.2c-1.2,0.7-2.7,0.7-3.9,0&#10;&#9;&#9;L358,208c-2-1.6-1.9-4.8,0-4.9l42.1-23.2C401.3,179.1,402.9,179.1,404.1,179.9z" style="fill: rgb(104, 225, 253);"/>
	<path class="st7_data-maintenance-8" d="M404.1,178.6l28,17.2c0.8,0.5,1.1,1.5,0.6,2.4c-0.2,0.3-0.4,0.5-0.6,0.6l-42.4,24.2c-1.2,0.7-2.7,0.7-3.9,0&#10;&#9;&#9;l-27.9-16.2c-1-0.6-1.4-1.9-0.8-2.9c0.2-0.3,0.5-0.6,0.8-0.8l42.1-24.4C401.3,177.9,402.8,177.9,404.1,178.6z"/>
	<path class="st1_data-maintenance-8" d="M403,176.3c0,0-11.8-37.4-11.7-37.4s-0.4-1.7-2.4-0.7l-44.5,26.4c0,0-2.2,0.9-1.7,2.9s11.5,36.6,11.5,36.6&#10;&#9;&#9;c0.5,0.7,1.3,1,2.1,0.7c1.4-0.4,45.7-26.4,45.7-26.4C402.8,178.1,403.3,177.2,403,176.3z"/>
	<polygon class="st10_data-maintenance-8 targetColor" points="390.5,141.6 345,168.4 354.6,200.1 400.7,174.1 &#9;" style="fill: rgb(104, 225, 253);"/>
	<path class="st10_data-maintenance-8 targetColor" d="M405.8,182.6l10.3,6.4c0.6,0.4,0.8,1.1,0.4,1.7c-0.1,0.2-0.2,0.3-0.4,0.4l-36.6,21.1c-1.1,0.6-2.5,0.6-3.6,0&#10;&#9;&#9;c-2.4-1.4-6.4-3.8-8.9-5.3c-0.7-0.4-0.9-1.3-0.5-2.1c0.1-0.2,0.3-0.4,0.5-0.5c7.4-4.4,31.6-18.5,36.9-21.6&#10;&#9;&#9;C404.4,182.3,405.2,182.3,405.8,182.6z" style="fill: rgb(104, 225, 253);"/>
	<path class="st10_data-maintenance-8 targetColor" d="M405.4,199.9l-12.8,7.3c-0.6,0.4-0.8,1.1-0.5,1.7c0.1,0.2,0.3,0.4,0.5,0.5l7.6,4.4c0.5,0.3,1.2,0.3,1.7,0&#10;&#9;&#9;l13.1-7.5c0.5-0.3,0.7-0.9,0.4-1.5c-0.1-0.2-0.2-0.3-0.4-0.4l-7.9-4.5C406.5,199.6,405.9,199.6,405.4,199.9z" style="fill: rgb(104, 225, 253);"/>
	<path class="st11_data-maintenance-8" d="M405.8,182.6l10.3,6.4c0.6,0.4,0.8,1.1,0.4,1.7c-0.1,0.2-0.2,0.3-0.4,0.4l-36.6,21.1c-1.1,0.6-2.5,0.6-3.6,0&#10;&#9;&#9;c-2.4-1.4-6.4-3.8-8.9-5.3c-0.7-0.4-0.9-1.3-0.5-2.1c0.1-0.2,0.3-0.4,0.5-0.5c7.4-4.4,31.6-18.5,36.9-21.6&#10;&#9;&#9;C404.4,182.3,405.2,182.3,405.8,182.6z"/>
	<path class="st11_data-maintenance-8" d="M405.4,199.9l-12.8,7.3c-0.6,0.4-0.8,1.1-0.5,1.7c0.1,0.2,0.3,0.4,0.5,0.5l7.6,4.4c0.5,0.3,1.2,0.3,1.7,0&#10;&#9;&#9;l13.1-7.5c0.5-0.3,0.7-0.9,0.4-1.5c-0.1-0.2-0.2-0.3-0.4-0.4l-7.9-4.5C406.5,199.6,405.9,199.6,405.4,199.9z"/>
</g>
<g id="Gears_data-maintenance-8">
	<path class="st10_data-maintenance-8 targetColor" d="M287.2,166.1c0.1,0.2,0.8,2.6,1.3,2.1s3.1,0.6,3.1,0.6l7.4-9.4l-1-3.1h-6.6" style="fill: rgb(104, 225, 253);"/>
	<path class="st10_data-maintenance-8 targetColor" d="M322.9,125.6l0.7-2.4l7.8-4.2v-13.2c0-0.3-7.5,4.4-7.5,4.4l-0.4-0.7c-0.4-2-1.2-4-2.3-5.7l5.5-10.1l-6.9-5.3&#10;&#9;&#9;l-5.2,10.4l0,0c-1.9-0.4-3.8-0.4-5.7,0.1v-10l-9.9,5.5v10.4c-1.9,1.9-3.7,3.9-5.3,6.1l-6-3.8l-6.8,12.9l5.4,4.3l-0.5,2.2&#10;&#9;&#9;c-0.7,2.3-1.2,4.6-1.7,7l-8,4.4V151l7.6-4.5c0.3,2.4,1.2,4.7,2.5,6.7l-5.7,9.6l7.2,5.4l5.1-9.9h6.4v9.9l9.5-5.8v-9.8&#10;&#9;&#9;c2.2-2.1,4.1-4.5,5.7-7.1l5.7,3.9l6.9-13.1l-5.7-4.2l0.6-2C322.1,128.6,322.5,127.1,322.9,125.6z" style="fill: rgb(104, 225, 253);"/>
	<polyline class="st10_data-maintenance-8 targetColor" points="340.9,111.2 332.1,105.9 329.9,109.2 333.3,116.3 &#9;" style="fill: rgb(104, 225, 253);"/>
	<polyline class="st10_data-maintenance-8 targetColor" points="329.4,155 322.9,152.3 322.9,148.4 &#9;" style="fill: rgb(104, 225, 253);"/>
	<polygon class="st10_data-maintenance-8 targetColor" points="308.5,173.7 299,168.2 301.4,161 310,163.5 &#9;" style="fill: rgb(104, 225, 253);"/>
	<polygon class="st10_data-maintenance-8 targetColor" points="319.7,88.3 329.3,93.8 324,104.3 318.3,104.4 317,93.8 &#9;" style="fill: rgb(104, 225, 253);"/>
	
		<ellipse transform="matrix(0.3657 -0.9307 0.9307 0.3657 74.5096 377.0309)" class="st10_data-maintenance-8 targetColor" cx="313.9" cy="133.9" rx="7.4" ry="4.3" style="fill: rgb(104, 225, 253);"/>
	<polygon class="st10_data-maintenance-8 targetColor" points="298.8,94.4 308.4,99.9 318.3,94.4 308.8,88.9 &#9;" style="fill: rgb(104, 225, 253);"/>
	<polygon class="st10_data-maintenance-8 targetColor" points="297.1,112.6 287.6,107.1 280.8,120 290.3,125.5 &#9;" style="fill: rgb(104, 225, 253);"/>
	<polygon class="st10_data-maintenance-8 targetColor" points="280.4,162.7 290,168.2 297.2,173.7 287.6,168.2 &#9;" style="fill: rgb(104, 225, 253);"/>
	<path class="st12_data-maintenance-8" d="M287.2,166.1c0.1,0.2,0.8,2.6,1.3,2.1s3.1,0.6,3.1,0.6l7.4-9.4l-1-3.1h-6.6"/>
	<path class="st10_data-maintenance-8 targetColor" d="M322.9,125.6l0.7-2.4l7.8-4.2v-13.2c0-0.3-7.5,4.4-7.5,4.4l-0.4-0.7c-0.4-2-1.2-4-2.3-5.7l5.5-10.1l-6.9-5.3&#10;&#9;&#9;l-5.2,10.4l0,0c-1.9-0.4-3.8-0.4-5.7,0.1v-10l-9.9,5.5v10.4c-1.9,1.9-3.7,3.9-5.3,6.1l-6-3.8l-6.8,12.9l5.4,4.3l-0.5,2.2&#10;&#9;&#9;c-0.7,2.3-1.2,4.6-1.7,7l-8,4.4V151l7.6-4.5c0.3,2.4,1.2,4.7,2.5,6.7l-5.7,9.6l7.2,5.4l5.1-9.9h6.4v9.9l9.5-5.8v-9.8&#10;&#9;&#9;c2.2-2.1,4.1-4.5,5.7-7.1l5.7,3.9l6.9-13.1l-5.7-4.2l0.6-2C322.1,128.6,322.5,127.1,322.9,125.6z" style="fill: rgb(104, 225, 253);"/>
	<polyline class="st12_data-maintenance-8" points="340.9,111.2 332.1,105.9 329.9,109.2 333.3,116.3 &#9;"/>
	<polyline class="st10_data-maintenance-8 targetColor" points="329.4,155 322.9,152.3 322.9,148.4 &#9;" style="fill: rgb(104, 225, 253);"/>
	<polygon class="st10_data-maintenance-8 targetColor" points="308.5,173.7 299,168.2 301.4,161 310,163.5 &#9;" style="fill: rgb(104, 225, 253);"/>
	<polygon class="st10_data-maintenance-8 targetColor" points="319.7,88.3 329.3,93.8 324,104.3 318.3,104.4 317,93.8 &#9;" style="fill: rgb(104, 225, 253);"/>
	
		<ellipse transform="matrix(0.3657 -0.9307 0.9307 0.3657 74.5096 377.0309)" class="st10_data-maintenance-8 targetColor" cx="313.9" cy="133.9" rx="7.4" ry="4.3" style="fill: rgb(104, 225, 253);"/>
	<polygon class="st10_data-maintenance-8 targetColor" points="297.1,112.6 287.6,107.1 280.8,120 290.3,125.5 &#9;" style="fill: rgb(104, 225, 253);"/>
	<polygon class="st10_data-maintenance-8 targetColor" points="280.4,162.7 290,168.2 297.2,173.7 287.6,168.2 &#9;" style="fill: rgb(104, 225, 253);"/>
	<path class="st12_data-maintenance-8" d="M322.9,125.6l0.7-2.4l7.8-4.2v-13.2c0-0.3-7.5,4.4-7.5,4.4l-0.4-0.7c-0.4-2-1.2-4-2.3-5.7l5.5-10.1l-6.9-5.3&#10;&#9;&#9;l-5.2,10.4l0,0c-1.9-0.4-3.8-0.4-5.7,0.1v-10l-9.9,5.5v10.4c-1.9,1.9-3.7,3.9-5.3,6.1l-6-3.8l-6.8,12.9l5.4,4.3l-0.5,2.2&#10;&#9;&#9;c-0.7,2.3-1.2,4.6-1.7,7l-8,4.4V151l7.6-4.5c0.3,2.4,1.2,4.7,2.5,6.7l-5.7,9.6l7.2,5.4l5.1-9.9h6.4v9.9l9.5-5.8v-9.8&#10;&#9;&#9;c2.2-2.1,4.1-4.5,5.7-7.1l5.7,3.9l6.9-13.1l-5.7-4.2l0.6-2C322.1,128.6,322.5,127.1,322.9,125.6z"/>
	<polyline class="st11_data-maintenance-8" points="329.4,155 322.9,152.3 322.9,148.4 &#9;"/>
	<polygon class="st11_data-maintenance-8" points="308.5,173.7 299,168.2 301.4,161 310,163.5 &#9;"/>
	
		<ellipse transform="matrix(0.3657 -0.9307 0.9307 0.3657 74.5096 377.0309)" class="st11_data-maintenance-8" cx="313.9" cy="133.9" rx="7.4" ry="4.3"/>
	<polygon class="st11_data-maintenance-8" points="297.1,112.6 287.6,107.1 280.8,120 290.3,125.5 &#9;"/>
	<polygon class="st11_data-maintenance-8" points="280.4,162.7 290,168.2 297.2,173.7 287.6,168.2 &#9;"/>
	<polyline class="st11_data-maintenance-8" points="329.4,155 322.9,152.3 322.9,148.4 &#9;"/>
	<polygon class="st12_data-maintenance-8" points="308.5,173.7 299,168.2 301.4,161 310,163.5 &#9;"/>
	<path class="st10_data-maintenance-8 targetColor" d="M332.4,131.1l0.7-2.4l7.8-4.2v-13.2c0-0.3-7.5,4.4-7.5,4.4l-0.4-0.7c-0.4-2-1.2-4-2.3-5.7l5.5-10.1l-6.9-5.3&#10;&#9;&#9;l-5.2,10.4h0c-1.9-0.4-3.8-0.4-5.7,0.1v-10l-9.9,5.5v10.4c-2,1.9-3.7,3.9-5.3,6.1l-6-3.8l-6.8,12.9l5.4,4.3l-0.5,2.1&#10;&#9;&#9;c-0.7,2.3-1.3,4.6-1.7,7l-8,4.4v13.2l7.6-4.5c0.3,2.4,1.2,4.7,2.5,6.8l-5.6,9.6l7.2,5.4l5.1-9.9h6.3v9.9l9.5-5.8v-9.8&#10;&#9;&#9;c2.2-2.1,4.1-4.5,5.7-7.1l5.7,3.9l6.9-13.1l-5.7-4.2l0.6-2C331.6,134.1,332,132.6,332.4,131.1z" style="fill: rgb(104, 225, 253);"/>
	
		<ellipse transform="matrix(0.3657 -0.9307 0.9307 0.3657 74.5096 377.0309)" class="st12_data-maintenance-8" cx="313.9" cy="133.9" rx="7.4" ry="4.3"/>
	<polygon class="st12_data-maintenance-8" points="280.4,162.7 290,168.2 297.2,173.7 287.6,168.2 &#9;"/>
	<polygon class="st10_data-maintenance-8 targetColor" points="298.8,94.4 308.4,99.9 318.3,94.4 308.8,88.9 &#9;" style="fill: rgb(104, 225, 253);"/>
	<polygon class="st12_data-maintenance-8" points="298.8,94.4 308.4,99.9 318.3,94.4 308.8,88.9 &#9;"/>
	<polygon class="st10_data-maintenance-8 targetColor" points="276.1,137.7 285.6,143.2 285.6,156.4 276.1,150.9 &#9;" style="fill: rgb(104, 225, 253);"/>
	<polygon class="st12_data-maintenance-8" points="276.1,137.7 285.6,143.2 285.6,156.4 276.1,150.9 &#9;"/>
	<path class="st10_data-maintenance-8 targetColor" d="M199.4,321.5c0.2,0.5,1.5,5.4,2.6,4.4s6.4,1.3,6.4,1.3l15-19.1l-2-6.2h-13.5" style="fill: rgb(104, 225, 253);"/>
	<path class="st10_data-maintenance-8 targetColor" d="M271.9,239.2l1.4-5l15.8-8.6v-26.9c0-0.5-15.3,9-15.3,9l-0.7-1.5c-0.9-4.1-2.4-8.1-4.6-11.6l11.1-20.6&#10;&#9;&#9;l-14.1-10.7L255,184.5l-0.1,0.1c-3.8-0.9-7.8-0.8-11.6,0.2v-20.3L223,175.6v21.3c-4,3.8-7.6,8-10.8,12.4l-12.2-7.8l-13.8,26.2&#10;&#9;&#9;l10.9,8.7l-0.9,4.4c-1.4,4.6-2.5,9.4-3.4,14.1l-16.2,8.9v26.8l15.4-9.2c0.7,4.9,2.4,9.6,5,13.7l-11.6,19.6l14.7,11.1l10.3-20.2&#10;&#9;&#9;h12.8v20.2l19.3-11.8v-19.9c4.4-4.3,8.3-9.2,11.6-14.4l11.6,7.9l14-26.7l-11.6-8.6l1.1-4C270.3,245.3,271.2,242.2,271.9,239.2z" style="fill: rgb(104, 225, 253);"/>
	<polyline class="st10_data-maintenance-8 targetColor" points="308.6,209.9 290.7,199.1 286.2,205.7 293.2,220.2 &#9;" style="fill: rgb(104, 225, 253);"/>
	<polyline class="st10_data-maintenance-8 targetColor" points="285.2,299 272,293.5 272,285.5 &#9;" style="fill: rgb(104, 225, 253);"/>
	<polygon class="st10_data-maintenance-8 targetColor" points="242.7,337.1 223.3,325.9 228.2,311.2 245.7,316.3 &#9;" style="fill: rgb(104, 225, 253);"/>
	<polygon class="st10_data-maintenance-8 targetColor" points="265.5,163.3 284.9,174.5 274.3,195.7 262.6,195.9 259.9,174.5 &#9;" style="fill: rgb(104, 225, 253);"/>
	<ellipse transform="matrix(0.3657 -0.9307 0.9307 0.3657 -77.36 398.3905)" class="st10_data-maintenance-8 targetColor" cx="253.6" cy="256" rx="15.1" ry="8.8" style="fill: rgb(104, 225, 253);"/>
	<polygon class="st10_data-maintenance-8 targetColor" points="223,175.6 242.4,186.8 262.6,175.6 243.2,164.4 &#9;" style="fill: rgb(104, 225, 253);"/>
	<polygon class="st10_data-maintenance-8 targetColor" points="219.4,212.7 200,201.5 186.3,227.7 205.7,238.9 &#9;" style="fill: rgb(104, 225, 253);"/>
	<polygon class="st10_data-maintenance-8 targetColor" points="185.5,314.8 204.9,326 219.6,337.1 200.2,325.9 &#9;" style="fill: rgb(104, 225, 253);"/>
	<path class="st12_data-maintenance-8" d="M199.4,321.5c0.2,0.5,1.5,5.4,2.6,4.4s6.4,1.3,6.4,1.3l15-19.1l-2-6.2h-13.5"/>
	<path class="st10_data-maintenance-8 targetColor" d="M271.9,239.2l1.4-5l15.8-8.6v-26.9c0-0.5-15.3,9-15.3,9l-0.7-1.5c-0.9-4.1-2.4-8.1-4.6-11.6l11.1-20.6&#10;&#9;&#9;l-14.1-10.7L255,184.5l-0.1,0.1c-3.8-0.9-7.8-0.8-11.6,0.2v-20.3L223,175.6v21.3c-4,3.8-7.6,8-10.8,12.4l-12.2-7.8l-13.8,26.2&#10;&#9;&#9;l10.9,8.7l-0.9,4.4c-1.4,4.6-2.5,9.4-3.4,14.1l-16.2,8.9v26.8l15.4-9.2c0.7,4.9,2.4,9.6,5,13.7l-11.6,19.6l14.7,11.1l10.3-20.2&#10;&#9;&#9;h12.8v20.2l19.3-11.8v-19.9c4.4-4.3,8.3-9.2,11.6-14.4l11.6,7.9l14-26.7l-11.6-8.6l1.1-4C270.3,245.3,271.2,242.2,271.9,239.2z" style="fill: rgb(104, 225, 253);"/>
	<polyline class="st12_data-maintenance-8" points="308.6,209.9 290.7,199.1 286.2,205.7 293.2,220.2 &#9;"/>
	<polyline class="st10_data-maintenance-8 targetColor" points="285.2,299 272,293.5 272,285.5 &#9;" style="fill: rgb(104, 225, 253);"/>
	<polygon class="st10_data-maintenance-8 targetColor" points="242.7,337.1 223.3,325.9 228.2,311.2 245.7,316.3 &#9;" style="fill: rgb(104, 225, 253);"/>
	<polygon class="st10_data-maintenance-8 targetColor" points="265.5,163.3 284.9,174.5 274.3,195.7 262.6,195.9 259.9,174.5 &#9;" style="fill: rgb(104, 225, 253);"/>
	<ellipse transform="matrix(0.3657 -0.9307 0.9307 0.3657 -77.36 398.3905)" class="st10_data-maintenance-8 targetColor" cx="253.6" cy="256" rx="15.1" ry="8.8" style="fill: rgb(104, 225, 253);"/>
	<polygon class="st10_data-maintenance-8 targetColor" points="219.4,212.7 200,201.5 186.3,227.7 205.7,238.9 &#9;" style="fill: rgb(104, 225, 253);"/>
	<polygon class="st10_data-maintenance-8 targetColor" points="185.5,314.8 204.9,326 219.6,337.1 200.2,325.9 &#9;" style="fill: rgb(104, 225, 253);"/>
	<path class="st12_data-maintenance-8" d="M271.9,239.2l1.4-5l15.8-8.6v-26.9c0-0.5-15.3,9-15.3,9l-0.7-1.5c-0.9-4.1-2.4-8.1-4.6-11.6l11.1-20.6&#10;&#9;&#9;l-14.1-10.7L255,184.5l-0.1,0.1c-3.8-0.9-7.8-0.8-11.6,0.2v-20.3L223,175.6v21.3c-4,3.8-7.6,8-10.8,12.4l-12.2-7.8l-13.8,26.2&#10;&#9;&#9;l10.9,8.7l-0.9,4.4c-1.4,4.6-2.5,9.4-3.4,14.1l-16.2,8.9v26.8l15.4-9.2c0.7,4.9,2.4,9.6,5,13.7l-11.6,19.6l14.7,11.1l10.3-20.2&#10;&#9;&#9;h12.8v20.2l19.3-11.8v-19.9c4.4-4.3,8.3-9.2,11.6-14.4l11.6,7.9l14-26.7l-11.6-8.6l1.1-4C270.3,245.3,271.2,242.2,271.9,239.2z"/>
	<polyline class="st11_data-maintenance-8" points="285.2,299 272,293.5 272,285.5 &#9;"/>
	<polygon class="st11_data-maintenance-8" points="242.7,337.1 223.3,325.9 228.2,311.2 245.7,316.3 &#9;"/>
	<ellipse transform="matrix(0.3657 -0.9307 0.9307 0.3657 -77.36 398.3905)" class="st11_data-maintenance-8" cx="253.6" cy="256" rx="15.1" ry="8.8"/>
	<polygon class="st11_data-maintenance-8" points="219.4,212.7 200,201.5 186.3,227.7 205.7,238.9 &#9;"/>
	<polygon class="st11_data-maintenance-8" points="185.5,314.8 204.9,326 219.6,337.1 200.2,325.9 &#9;"/>
	<polyline class="st11_data-maintenance-8" points="285.2,299 272,293.5 272,285.5 &#9;"/>
	<polygon class="st12_data-maintenance-8" points="242.7,337.1 223.3,325.9 228.2,311.2 245.7,316.3 &#9;"/>
	<path class="st10_data-maintenance-8 targetColor" d="M291.4,250.4l1.4-5l15.8-8.6v-26.9c0-0.5-15.3,9-15.3,9l-0.7-1.5c-0.9-4.1-2.4-8.1-4.6-11.6l11.1-20.5&#10;&#9;&#9;l-14.1-10.8l-10.6,21.2l-0.1,0.1c-3.8-0.9-7.8-0.8-11.6,0.2v-20.3l-20.2,11.2v21.3c-4,3.8-7.6,8-10.8,12.4l-12.2-7.8l-13.8,26.2&#10;&#9;&#9;l10.9,8.7l-0.9,4.4c-1.4,4.6-2.5,9.4-3.4,14.1l-16.2,8.9v26.8l15.4-9.2c0.7,4.9,2.4,9.6,5,13.7L204.9,326l14.7,11.1l10.3-20.2h12.8&#10;&#9;&#9;v20.2l19.3-11.8v-19.9c4.4-4.3,8.3-9.2,11.6-14.4l11.6,7.9l14-26.7l-11.6-8.6l1.1-4C289.8,256.5,290.6,253.4,291.4,250.4z" style="fill: rgb(104, 225, 253);"/>
	<ellipse transform="matrix(0.3657 -0.9307 0.9307 0.3657 -77.36 398.3905)" class="st12_data-maintenance-8" cx="253.6" cy="256" rx="15.1" ry="8.8"/>
	<polygon class="st12_data-maintenance-8" points="185.5,314.8 204.9,326 219.6,337.1 200.2,325.9 &#9;"/>
	<polygon class="st10_data-maintenance-8 targetColor" points="223,175.6 242.4,186.8 262.6,175.6 243.2,164.4 &#9;" style="fill: rgb(104, 225, 253);"/>
	<polygon class="st12_data-maintenance-8" points="223,175.5 242.4,186.8 262.6,175.7 243.2,164.4 &#9;"/>
	<polygon class="st10_data-maintenance-8 targetColor" points="176.6,263.8 196.1,275 196.1,301.8 176.6,290.6 &#9;" style="fill: rgb(104, 225, 253);"/>
	<polygon class="st12_data-maintenance-8" points="176.6,263.8 196.1,275 196.1,301.8 176.6,290.6 &#9;"/>
</g>
<g id="Server_1_data-maintenance-8">
	<polyline class="st13_data-maintenance-8" points="152.7,172.3 127.8,159 68,193.6 68,322.9 92.6,337.1 &#9;"/>
	<polyline class="st11_data-maintenance-8" points="152.7,172.3 127.8,159 68,193.6 68,322.9 92.6,337.1 &#9;"/>
	<path class="st13_data-maintenance-8" d="M92.6,337.1c1.9-0.2,0-130.2,0-130.2l60.1-34.7v131.1L92.6,337.1z"/>
	<polygon class="st7_data-maintenance-8" points="92.9,230.5 92.8,230.5 67.9,217.8 68,217.6 92.9,230.2 152.6,196.6 152.8,196.9 &#9;"/>
	<polygon class="st7_data-maintenance-8" points="92.9,264.2 92.8,264.1 67.9,251.4 68,251.2 92.9,263.9 152.6,230.3 152.8,230.5 &#9;"/>
	<polygon class="st7_data-maintenance-8" points="92.9,294.5 92.8,294.4 67.9,281.7 68,281.5 92.9,294.2 152.6,260.6 152.8,260.8 &#9;"/>
	<polygon class="st7_data-maintenance-8" points="92.9,325 92.8,325 67.9,312.3 68,312.1 92.9,324.7 152.6,291.1 152.8,291.4 &#9;"/>
	<polygon class="st13_data-maintenance-8" points="92.6,207 68,193.6 127.8,159 152.7,172.3 &#9;"/>
	<polygon class="st14_data-maintenance-8" points="92.6,207 68,193.6 127.8,159 152.7,172.3 &#9;"/>
	
		<ellipse transform="matrix(0.3791 -0.9253 0.9253 0.3791 -130.9391 227.333)" class="st7_data-maintenance-8" cx="103.9" cy="211.2" rx="4.4" ry="3.6"/>
	<path class="st7_data-maintenance-8" d="M144.9,189.1l-28,15.4l-3.9,2.2c-0.4,0.2,0,0.9,0.4,0.6l28-15.4l3.9-2.2C145.7,189.5,145.3,188.8,144.9,189.1&#10;&#9;&#9;L144.9,189.1z"/>
	
		<ellipse transform="matrix(0.3791 -0.9253 0.9253 0.3791 -158.1528 245.6095)" class="st7_data-maintenance-8" cx="104" cy="240.7" rx="4.4" ry="3.6"/>
	<path class="st7_data-maintenance-8" d="M144.9,218.5l-28,15.4l-3.9,2.2c-0.4,0.2,0,0.9,0.4,0.6l28-15.4l3.9-2.2C145.7,218.9,145.3,218.3,144.9,218.5&#10;&#9;&#9;L144.9,218.5z"/>
	
		<ellipse transform="matrix(0.3791 -0.9253 0.9253 0.3791 -187.9041 265.5587)" class="st7_data-maintenance-8" cx="103.9" cy="272.8" rx="4.4" ry="3.6"/>
	<path class="st7_data-maintenance-8" d="M144.9,250.6l-28,15.4l-3.9,2.2c-0.4,0.2,0,0.9,0.4,0.6l28-15.4l3.9-2.2c0.2-0.1,0.2-0.3,0.1-0.5&#10;&#9;&#9;S145.1,250.5,144.9,250.6L144.9,250.6z"/>
	<ellipse transform="matrix(0.3791 -0.9253 0.9253 0.3791 -214.9053 283.6898)" class="st7_data-maintenance-8" cx="104" cy="302" rx="4.4" ry="3.6"/>
	<path class="st7_data-maintenance-8" d="M144.9,279.8l-28,15.4l-3.9,2.2c-0.4,0.2,0,0.9,0.4,0.6l28-15.4l3.9-2.2C145.7,280.2,145.3,279.6,144.9,279.8&#10;&#9;&#9;L144.9,279.8z"/>
</g>
</svg>