<svg id="_0154_network" xmlns="http://www.w3.org/2000/svg" xmlns:xlink="http://www.w3.org/1999/xlink" viewBox="0 0 500 500" data-imageid="network-80" imageName="Network" class="illustrations_image" style="width: 151px;"><defs><style>.cls-1_network-80{fill:url(#linear-gradient);}.cls-1_network-80,.cls-2_network-80,.cls-3_network-80,.cls-4_network-80,.cls-5_network-80,.cls-6_network-80,.cls-7_network-80,.cls-8_network-80,.cls-9_network-80,.cls-10_network-80,.cls-11_network-80,.cls-12_network-80,.cls-13_network-80,.cls-14_network-80{stroke-width:0px;}.cls-2_network-80,.cls-3_network-80{opacity:.18;}.cls-2_network-80,.cls-3_network-80,.cls-12_network-80{isolation:isolate;}.cls-2_network-80,.cls-12_network-80,.cls-14_network-80{fill:#68e1fd;}.cls-3_network-80,.cls-13_network-80{fill:#fff;}.cls-4_network-80{fill:url(#linear-gradient-4-network-80);}.cls-5_network-80{fill:url(#linear-gradient-2-network-80);}.cls-6_network-80{fill:url(#linear-gradient-3-network-80);}.cls-7_network-80{fill:url(#linear-gradient-8-network-80);}.cls-8_network-80{fill:url(#linear-gradient-9-network-80);}.cls-9_network-80{fill:url(#linear-gradient-7-network-80);}.cls-10_network-80{fill:url(#linear-gradient-5-network-80);}.cls-11_network-80{fill:url(#linear-gradient-6-network-80);}.cls-12_network-80{opacity:.24;}</style><linearGradient id="linear-gradient-network-80" x1="792.07" y1="2830.98" x2="792.65" y2="2766.67" gradientTransform="translate(-721.23 3094.72) scale(1 -1)" gradientUnits="userSpaceOnUse"><stop offset="0" stop-color="#000" stop-opacity="0"/><stop offset=".99" stop-color="#000"/></linearGradient><linearGradient id="linear-gradient-2-network-80" x1="820.04" y1="3116.23" x2="870.25" y2="2791.04" gradientTransform="translate(-478.47 3387.46) rotate(.46) scale(1 -1)" xlink:href="#linear-gradient-network-80"/><linearGradient id="linear-gradient-3-network-80" x1="891.4" y1="3006.76" x2="892.55" y2="2910.31" gradientTransform="translate(-2533.09 -465.02) rotate(90) scale(1 -1)" xlink:href="#linear-gradient-network-80"/><linearGradient id="linear-gradient-4-network-80" x1="896.24" y1="3146.83" x2="880.6" y2="3192.55" gradientTransform="translate(-478.87 3367.53) scale(1 -1)" xlink:href="#linear-gradient-network-80"/><linearGradient id="linear-gradient-5-network-80" x1="1012.19" y1="3230.06" x2="791.76" y2="3221.95" gradientTransform="translate(-471 3370.83) scale(1 -1)" xlink:href="#linear-gradient-network-80"/><linearGradient id="linear-gradient-6-network-80" x1="870.4" y1="3286.62" x2="892.42" y2="3102.97" gradientTransform="translate(-471 3370.83) scale(1 -1)" gradientUnits="userSpaceOnUse"><stop offset=".02" stop-color="#fff" stop-opacity="0"/><stop offset=".32" stop-color="#fff" stop-opacity=".39"/><stop offset=".68" stop-color="#fff" stop-opacity=".68"/><stop offset="1" stop-color="#fff"/></linearGradient><linearGradient id="linear-gradient-7-network-80" x1="877.72" y1="3155.91" x2="932.31" y2="3135.48" gradientTransform="translate(-471 3370.83) scale(1 -1)" xlink:href="#linear-gradient-network-80"/><linearGradient id="linear-gradient-8-network-80" x1="926.37" y1="3149.88" x2="899.87" y2="3166.24" gradientTransform="translate(-478.87 3367.53) scale(1 -1)" xlink:href="#linear-gradient-network-80"/><linearGradient id="linear-gradient-9-network-80" x1="740.23" y1="3108.27" x2="612.2" y2="2975.6" gradientTransform="translate(-478.87 3367.53) scale(1 -1)" xlink:href="#linear-gradient-network-80"/></defs><path id="background_network-80" class="cls-12_network-80 targetColor" d="M292.38,112.36c-11.45-6.53-25.09-10.2-37.94-7.32-8.58,1.96-16.3,6.6-23.82,11.2l-67.58,41.41c-15.5,9.48-31.61,19.6-40.87,35.24-5.19,8.76-7.88,18.74-12.16,27.98-8.95,19.38-24.9,35.65-29.73,56.45-6.67,28.54,9.73,58.09,32.01,77.22,22.28,19.12,49.87,30.51,75.31,45.05,15.93,9.12,31.16,19.55,47.76,27.41,15.33,7.34,31.74,12.17,48.61,14.3,11.97,1.43,24.45,1.32,35.67-3.08,27.61-10.82,39.56-43.1,62.08-62.41,11.67-10.02,25.98-16.34,39.01-24.52,13.03-8.18,25.44-19.19,29.58-34.01,5.3-18.97-4.47-39.21-17.86-53.67-13.39-14.46-30.35-25.19-44.18-39.24-16.93-17.19-23.95-39.12-37.58-58.33-14.25-19.91-37.16-41.6-58.31-53.67Z" style="fill: rgb(104, 225, 253);"/><g id="phone_network-80"><path class="cls-12_network-80 targetColor" d="M117.2,188.49c4.74,3.27,9.57,6.44,13.4,10.67,6.5,7.55,9.65,17.42,8.74,27.34-.99,9.87-5.02,19.18-11.55,26.65-3.83,4.52-8.38,8.42-11.86,13.18-2.37,3.22-4.28,6.81-6.69,10.03-6.73,8.72-16.7,14.34-27.64,15.59-10.91,1.17-21.88-1.58-30.96-7.75-13.48-9.08-21.53-24.04-31.71-36.75-3.44-4.28-7.22-8.42-9.35-13.47-3.13-7.42-2.37-15.85-1.19-23.81.95-5.95,2.23-12.27,6.26-16.82,4.96-5.57,12.89-7.22,19.23-11.14,12.78-7.86,22.27-26.98,39.65-24.74,7.73,1,14.04,6.86,19.66,11.76,7.66,6.84,15.67,13.27,24.01,19.27Z" style="fill: rgb(104, 225, 253);"/><rect class="cls-14_network-80 targetColor" x="146.97" y="187.81" width="6.18" height="108.97" transform="translate(-132.31 280.98) rotate(-66.03)" style="fill: rgb(104, 225, 253);"/><rect class="cls-14_network-80 targetColor" x="35.77" y="155.46" width="69.44" height="138.26" rx="12.22" ry="12.22" transform="translate(-20.71 7.58) rotate(-5.37)" style="fill: rgb(104, 225, 253);"/><rect class="cls-1_network-80" x="35.77" y="155.46" width="69.44" height="138.26" rx="12.22" ry="12.22" transform="translate(-20.71 7.58) rotate(-5.37)"/><rect class="cls-14_network-80 targetColor" x="35.62" y="155.32" width="69.44" height="135.32" rx="12.09" ry="12.09" transform="translate(-20.56 7.56) rotate(-5.37)" style="fill: rgb(104, 225, 253);"/><rect class="cls-13_network-80" x="38.93" y="158.43" width="62.46" height="121.49" rx="10.87" ry="10.87" transform="translate(-20.2 7.53) rotate(-5.37)"/><path class="cls-2_network-80 targetColor" d="M67.38,189.61c-15,1.38-26.04,14.65-24.66,29.65,1.38,15,14.65,26.04,29.65,24.66,15-1.38,26.04-14.65,24.66-29.65,0-.03,0-.06,0-.08-1.42-14.96-14.68-25.95-29.64-24.58ZM72.05,239.23c-12.18,1.15-22.99-7.79-24.14-19.98-1.15-12.18,7.79-22.99,19.98-24.14,12.18-1.15,22.99,7.79,24.14,19.98,0,0,0,0,0,0,1.13,12.18-7.8,22.98-19.98,24.14Z" style="fill: rgb(104, 225, 253);"/><polygon class="cls-14_network-80 targetColor" points="70.99 204.25 73.31 229.06 79.41 222.67 74.94 223.08 73.16 204.19 70.99 204.25" style="fill: rgb(104, 225, 253);"/><polygon class="cls-14_network-80 targetColor" points="71.2 229.26 68.87 204.46 62.78 210.85 67.24 210.43 69.02 229.32 71.2 229.26" style="fill: rgb(104, 225, 253);"/></g><g id="laptop_network-80"><path class="cls-12_network-80 targetColor" d="M377.45,341.04c-12.56,2.68-22.02,12.72-30.62,22.24l-13.24,14.7c-3.56,3.89-7.11,8.03-8.3,13.15-2.17,10.13,6.15,19.19,13.76,26.21l30.1,27.68c3.56,3.28,7.22,6.63,11.73,8.41,4.74,1.86,9.99,1.81,15.09,1.73,10.97-.19,22.78-.68,31.48-7.34,6.64-5.09,10.47-13.04,16.69-18.65,18.58-16.69,27.99-31.5,3.84-47.98-20.94-14.26-41.58-46.36-70.53-40.16Z" style="fill: rgb(104, 225, 253);"/><rect class="cls-14_network-80 targetColor" x="322.58" y="306.56" width="6.18" height="114.9" transform="translate(-155.29 278.92) rotate(-38.15)" style="fill: rgb(104, 225, 253);"/><path class="cls-14_network-80 targetColor" d="M431.39,424.74l-83.22-.66c-2.78,0-5.18-1.93-5.79-4.64l-15.12-65.43c-.78-3.18,1.16-6.39,4.34-7.17.52-.13,1.05-.18,1.58-.17l83.23.66c2.79.02,5.21,1.96,5.83,4.68l15.09,65.34c.76,3.23-1.24,6.47-4.47,7.23-.49.11-.99.17-1.49.16Z" style="fill: rgb(104, 225, 253);"/><path class="cls-5_network-80" d="M426.44,417.72l-75.07-.6c-2.46,0-4.61-1.64-5.23-4.02l-13.74-56.74c-.62-2.82,1.16-5.61,3.97-6.23.43-.1.88-.14,1.32-.12l75.12.6c2.46-.02,4.61,1.64,5.22,4.02l13.66,56.73c.62,2.83-1.18,5.63-4.02,6.25-.41.09-.82.13-1.24.12Z"/><path class="cls-14_network-80 targetColor" d="M349.3,421.55l108.57.87c2.02.02,3.65,1.67,3.63,3.69h0c-.02,2.02-1.67,3.65-3.69,3.63l-108.57-.87c-2-.02-3.61-1.65-3.6-3.66v-.09c.02-2,1.65-3.61,3.66-3.6v.02Z" style="fill: rgb(104, 225, 253);"/><rect class="cls-14_network-80 targetColor" x="436.1" y="379.88" width="7.34" height="93.9" rx="3.31" ry="3.31" transform="translate(8.56 862.31) rotate(-89.43)" style="fill: rgb(104, 225, 253);"/><rect class="cls-6_network-80" x="436.1" y="379.88" width="7.34" height="93.9" rx="3.31" ry="3.31" transform="translate(8.56 862.31) rotate(-89.43)"/><path class="cls-13_network-80" d="M382.2,368.52l5.44,24.21M387.72,392.73l5.17-7.03-4.33.97M388.5,386.67l-4.15-18.46,4.15,18.46Z"/><path class="cls-13_network-80" d="M385.59,393.29l-5.44-24.2M380.07,369.09l-5.18,7.04,4.34-.97s.04-.01.06,0l4.15,18.47-3.37-24.54Z"/></g><g id="pc_network-80"><path class="cls-12_network-80 targetColor" d="M348.63,111.15c-9.41,8.49-18.6,18.28-21.48,30.62-3.33,14.23,2.37,29.02,10.3,41.24,7.93,12.21,18.18,22.86,25.54,35.44,2.31,3.92,4.45,8.17,8.12,10.86,4.21,3.08,9.71,3.56,14.91,4.01,20.83,1.64,44.16,2.49,59.88-11.28,13.04-11.43,17.1-29.88,26.89-44.19,3.5-5.1,7.84-9.89,9.37-15.89,2.49-9.78-3.19-19.68-9.27-27.74-13.25-17.63-35.12-43.06-57.12-49.12-24.22-6.66-50.26,10.81-67.14,26.05Z" style="fill: rgb(104, 225, 253);"/><polygon class="cls-14_network-80 targetColor" points="377.74 172.33 257.16 248.2 253.89 242.96 374.47 167.1 377.74 172.33" style="fill: rgb(104, 225, 253);"/><path class="cls-14_network-80 targetColor" d="M448.23,211.94c-2.04,7.81-11.3,6.38-11.3,6.38,0,0-53.74,1.01-54.75,0-.82-.83-.28-4-.08-5.12,0-.25.08-.39.08-.39h15.35s7.24-3.77-4.64-20.84c-9.97-14.37,27.68-15.01,39.98-14.86,2.37,0,3.77.08,3.77.08,0,0,13.6,26.93,11.58,34.75Z" style="fill: rgb(104, 225, 253);"/><path class="cls-14_network-80 targetColor" d="M441.86,206.44c-2.02,7.82-11.3,6.37-11.3,6.37,0,0-34.05.65-48.46.39,0-.25.08-.39.08-.39h15.35s7.24-3.77-4.64-20.84c-9.97-14.37,27.68-15.01,39.98-14.86,3.85,8.26,10.43,23.72,8.98,29.33Z" style="fill: rgb(104, 225, 253);"/><path class="cls-4_network-80" d="M444.05,207.59c-2.02,7.82-13.49,5.22-13.49,5.22,0,0-34.05.65-48.46.39,0-.25.08-.39.08-.39h15.35s7.24-3.77-4.64-20.84c-9.97-14.37,27.68-15.01,39.98-14.86,3.85,8.26,12.64,24.87,11.17,30.48Z"/><rect class="cls-14_network-80 targetColor" x="341.45" y="99.84" width="136.42" height="91.54" rx="10.8" ry="10.8" style="fill: rgb(104, 225, 253);"/><rect class="cls-10_network-80" x="341.45" y="99.84" width="136.42" height="91.54" rx="10.8" ry="10.8"/><rect class="cls-14_network-80 targetColor" x="338.55" y="99.84" width="136.42" height="91.54" rx="10.8" ry="10.8" style="fill: rgb(104, 225, 253);"/><rect class="cls-11_network-80" x="338.55" y="99.84" width="136.42" height="91.54" rx="10.8" ry="10.8"/><path class="cls-14_network-80 targetColor" d="M474.87,171.48l.08,9.09c0,5.97-4.84,10.8-10.8,10.8h-114.81c-5.97,0-10.8-4.84-10.8-10.8l-.08-9.09h136.42Z" style="fill: rgb(104, 225, 253);"/><rect class="cls-9_network-80" x="382.18" y="213.22" width="53.54" height="5.09"/><path class="cls-7_network-80" d="M444.05,207.59l.51,9.13c-2.6,1.72-5.79,2.3-8.83,1.6v-5.1s7.6,2.19,8.32-5.63Z"/><path class="cls-3_network-80" d="M398.24,121.85c-11.84.1-21.37,9.78-21.27,21.63.1,11.84,9.78,21.37,21.63,21.27,11.84-.1,21.37-9.78,21.27-21.63,0,0,0,0,0-.01-.11-11.84-9.79-21.35-21.63-21.26ZM398.59,161.1c-9.64.09-17.53-7.65-17.62-17.29-.09-9.64,7.65-17.53,17.29-17.62,9.64-.09,17.53,7.65,17.62,17.29,0,0,0,0,0,.01.07,9.63-7.66,17.5-17.29,17.61Z"/><polygon class="cls-13_network-80" points="400.09 133.58 400.26 153.19 405.47 148.59 401.94 148.61 401.79 133.68 400.09 133.58"/><polygon class="cls-13_network-80" points="398.59 153.21 398.42 133.59 393.21 138.2 396.74 138.17 396.87 153.11 398.59 153.21"/></g><g id="earth_network-80"><g id="TWXE3W_network-80"><path class="cls-14_network-80 targetColor" d="M251.03,193.75c-43.18-.03-78.2,34.95-78.23,78.13-.03,43.18,34.95,78.2,78.13,78.23,43.12.03,78.12-34.87,78.23-77.99.47-42.81-33.85-77.89-76.65-78.37-.49,0-.98,0-1.48,0ZM262.63,229.76c-.03-.22.01-.44.12-.64.23-.33.47-.76.81-.84s.65.26,1.1.49c-.82.84-.47,1.3.25,1.67.17.08.32.21.44.37.19.57.44,1.11.76,1.62.49.4,1.04.72,1.62.95-.48.43-.99.82-1.52,1.19-.51.32-1.07.56-1.65.72-.47.05-.95.05-1.42,0,0-.09,0-.17,0-.26l1-.62c-.36-.44-.87-.78-.91-1.19s.44-.82.72-1.29c-.45-.72-1.11-1.06-1.58-.75-1.39.92-1.48,1.19-.85,2.18-.9.36-1.77.69-2.69,1.01-.19-.94.9-1.79,0-2.63.38-.64,1.07-1.03,1.81-1.01h1.07c.57-.09,1-.26.92-.97ZM240.22,209.81c1.83.27,3.66.39,5.49.53.68.15,1.38-.08,1.85-.59.21-.25.7-.3,1.07-.36,1.42-.23,2.87-.49,4.3-.64.76-.07,1.52-.03,2.26.11,1.75.27,3.56.62,5.25.92.28.05.54.17.76.36-.72,0-1.46.08-2.18.17-.46.03-.91.14-1.34.32-.65.33-1.26.69-1.29,1.65-.01.97-.68,1.8-1.62,2.02-.96.34-1.89.73-2.8,1.19-.47.23-.47.5,0,.77.65.37,1.32.71,2.04,1.19q-1.11.43-3.44-.64l.98,1.65c-1.48.39-3.02.83-4.56,1.19-1.44.25-2.78.88-3.89,1.83-1.12.8-2.45,1.26-3.83,1.3-.72.14-1.29.26-1.29,1.19,0,.34-.33.74-.62,1.03-.39.35-.81.66-1.26.92-1.1.79-2.62.53-3.41-.56-.3-.42-.46-.92-.46-1.44-.09-.48-.12-.98-.08-1.47.15-.56.37-1.1.65-1.61.16-.22.35-.42.56-.59,2.02-2.18,1.57-4.48-1.03-5.93-1.09-.64-2.3-1.04-3.56-1.19-.45-.12-.87-.32-1.24-.59,1.73-.28,3.4-.51,5.05-.82.7-.19,1.39-.44,2.05-.75,1.73-.86,3.66-1.25,5.58-1.14ZM257.34,221.67c0,.4-.2.78-.52,1.02-.67.41-1.37.76-2.1,1.03-.66.34-1.46.16-1.91-.43-.23-.27-.7-.36-1.06-.52,0-.09,0-.18-.08-.26.36-.14.69-.33,1.03-.44,1.11-.31,2.21-.59,3.3-.87.52-.12,1.15-.12,1.34.46ZM218.41,212.26c.51-.15,1.06-.26,1.59-.4s1.26-.27,1.49-1.06c.14-.33.43-.58.78-.68.27,0,.52-.11.78-.14.81-.17,1.65-.28,2.48-.41.66-.03,1.32-.13,1.97-.28,1.2-.47,2.49-.67,3.78-.58.41,0,.81-.08,1.19-.09s.76,0,1.19,0c-.01.09-.01.19,0,.28-1.37,1.1-3.01,1.82-4.74,2.1-2.4.4-4.7,1.29-6.73,2.63-.63.41-1.29.75-1.79-.23h0c-.08-.19-.46-.3-.72-.33-.63-.06-1.26-.17-1.87-.33.18-.19.39-.35.62-.47ZM214.27,214.51c-.06,0-.09-.07-.2-.13.59-1.01,1.26-1.32,2.29-.84,1,.51,2.16.6,3.22.25.06.05.12.1.17.17-.17.23-.27.56-.47.64-.5.2-1.06.24-1.57.43-.24.09-.42.29-.5.53,0,.13.25.44.44.5l.68.18c1.81.55,3.63,1.01,5.45,1.55.18.11.31.28.36.49-.01.27-.06.54-.13.81-.33,1.46.06,1.99,1.57,2.02.03.52-.33.99-.84,1.09-.98.25-1.96.56-2.9.87-.45.14-.92.28-.78.95,0,.16-.08.3-.2.4-.87.57-2,.53-2.82-.09-.52-.6-.46-1.52.14-2.04.2-.17.43-.28.69-.33.57-.14,1.19-.18,1.77-.34.27-.06.5-.23.65-.46.06-.14-.18-.46-.37-.65-1.13-1.05-2.55-1.75-4.08-1.99-.46-.08-.93-.14-1.4-.17-1.1-.07-2.22-.19-3.33-.31-.47-.07-1.07,0-1.1-.72-.1-.55.26-1.07.81-1.17.08-.01.15-.02.23-.01.74-.02,1.48-.1,2.21-.23.33,0,.79-.28.84-.51.11-.47-.23-.85-.81-.85ZM223.94,236.11c.28.33.81.84.72,1.11-.17.56-.73.9-1.3.82-.99-.13-2-.21-3-.23.86-1.24,2.08-2.19,3.5-2.72-.25.23-.43.39-.7.62.28.08.55.21.78.39ZM226.74,305.78c-.81.52-1.55,1.13-2.21,1.84-.38.61-.63,1.3-.74,2.02-.27,1.3-.63,2.59-1.07,3.84-.32.72-1.19,1.19-1.73,1.84-.86,1.16-2.45,1.48-3.69.74-.31.89.28,1.45.64,2.06q.53.94-.37,1.58c-.9.64-1.57,1.28-2.37,1.96-.57.53-.8,1.32-.6,2.07-.01.66-.1,1.32-.26,1.96-.1.33-.15.68-.14,1.03.07.68.28,1.34.37,2.02.14,1.19.23,2.29.33,3.41,0,.44.15.7.68.75.2,0,.47.26.57.47.31.63.58,1.29.85,1.93-.74.56-1.8.42-2.36-.32,0,0,0-.01-.01-.02-.41-.78-1.09-1.39-1.91-1.71-1.34-.59-2.42-1.64-3.04-2.96-.71-1.42-1.52-2.66-1.29-4.42.27-1.13-.35-2.28-1.43-2.68-.21-.06-.36-.49-.39-.76-.13-1.11-.19-2.24-.3-3.36-.23-2.37-.51-4.74-.65-7.11-.11-1.77,0-3.56,0-5.32v-2.37c-.17-2.11-1.61-3.9-3.64-4.51-1.12-.22-1.91-1.23-1.84-2.37.05-1-.5-1.93-1.4-2.37-1.18-.66-2.07-1.73-2.5-3.01-.16-.38-.4-.72-.7-1.01-.65-.6-.92-1.51-.72-2.37.03-.59,0-1.18-.12-1.75-.09-.39-.12-.79-.11-1.19.16-1.14.56-2.23,1.19-3.19.71-1.02,1.29-2.13,1.73-3.3.51-1.28.09-2.75-1.03-3.56-.37-.19-.8-.21-1.19-.06-.76.49-1.75.43-2.44-.14-1.46-.92-2.65-2.2-3.47-3.72-.15-.22-.36-.38-.6-.47-.35-.14-.72-.23-1.1-.25-1.03-.07-2-.54-2.68-1.32-.82-.87-2-1.3-3.19-1.19-.16.04-.33.04-.5,0-2.36-.6-4.52-1.83-6.24-3.56-.5-.68-.7-1.54-.53-2.37.62-4.76,1.69-9.44,3.21-13.99,2.3-7.01,5.62-13.65,9.85-19.69,1.57-2.26,3.38-4.39,5.09-6.57.25-.33.51-.49.89-.23.51.32,1.13.41,1.71.25,1.4-.17,2.81-.11,4.17-.39,1.65-.36,3.26-.86,4.81-1.51,1.16-.67,1.95-1.84,2.15-3.17.09-.36.23-.72.34-1.09q.41-1.34,1.79-1.03l2.83.64c-.79.28-1.62.56-2.37.89-.47.17-.53.49-.21.88.58.69,1.09,1.39,1.67,2.04.17.17.58.31.72.23,1.19-.7,2.37-.39,3.62-.49-.31.55-.69,1.05-1.11,1.52-.44.33-.95.54-1.49.64-1.42.28-2.87.47-4.28.7-.14,1-1.01,1.72-2.02,1.68-1.84.3-3.57,1.1-5,2.3-1.05.58-1.5,1.85-1.06,2.96.15.46.3,1.03,1.03.66.11,0,.36,0,.5.14.7.36,1.35.74,2.04,1.09.69.36,1.19.72,1.89.45.17,0,.39.11.39.08-.18,1.19-.37,2.16-.57,3.3.8.03,1.56-.36,1.99-1.03,1.34-1.91,2.74-3.77,4.09-5.64.22-.26.43-.55.6-.84h0c.78-1.52,2.51-2.3,4.16-1.86.92.15,1.57.36,1.48,1.47,0,.17.43.45.68.49,1.11.13,1.67,0,3.56-.84.07.17.12.35.15.53.03.25.03.5,0,.75-.5,1.92.52,3.91,2.37,4.62l.37.19c-1.35,1.28-3.12,2.05-4.98,2.16-1.29,0-2.56.33-3.69.97-.94.44-1.91.81-2.9,1.1-.34.22-.65.47-.92.77l.13.24,3.68-.32c-.14.9,0,1.43.95,1.52.36,0,.66.51,1.11.89-1.59.31-2.37,2.05-4.4,1.62.62-.56,1.09-1.01,1.58-1.46-.74-.83-.92-.91-1.91-.3-.98.62-1.85,1.36-2.77,2.04-.25.19-.47.47-.75.51-1.62.31-2.43,1.65-3.47,2.7-.07.08-.14.16-.23.23-.41.56-1.06.91-1.75.96-.32,0-.63.12-.88.33-.28.25-.47.6-.52.97.13,1.4-.63,2.73-1.91,3.33-1.14.61-2.22,1.31-3.24,2.1-.87.9-1.11,2.24-.62,3.39.39.8.39,1.74,0,2.54-.08.2-.56.37-.87.37s-.49-.28-.56-.51c-.24-1.01-.43-2.06-.68-3.09-.14-.35-.32-.68-.53-.98-.07.02-.14.05-.2.08v1.19c-.06.06-.13.1-.2.14-.26-.28-.51-.59-.81-.87-.38-.37-.81-.68-1.27-.95-.5-.22-1.09-.03-1.36.45-.49.66-1.07,1.26-1.58,1.86-.42-.52-.87-1.01-1.34-1.47-.21-.16-.48-.23-.75-.18-.98.15-1.88.66-2.5,1.43-.67.8-1.41,1.54-2.21,2.21-.78.52-1.01,1.56-.53,2.37.12.34.15.7.08,1.06-.37,1.98.83,3.91,2.77,4.43,1.02.35,2.15-.09,2.66-1.04.2-.44.34-.9.56-1.36.16-.52.71-.82,1.23-.66.04.01.08.03.11.04.32.33.47.8.4,1.26-.18.77-.41,1.53-.7,2.26-.26.84-.08,1.19.81,1.42.64.12,1.29.2,1.96.28.65-.01,1.19.51,1.2,1.17,0,.08,0,.16-.02.23-.07.96-.04,1.93.08,2.88.15.57.45,1.08.88,1.48.3.2.68.24,1.01.08.58-.38,1.31-.45,1.96-.19.25.1.52.17.78.23,1.19.3,1.48.08,2.29-.77.52-.49,1.11-.9,1.77-1.19.21-.06.42,0,.58.14.1.17.1.38,0,.56-.65.58-.31.87.27,1.11l1.38.57c-.89-1.43.28-1.93.82-2.8.21.13.41.28.6.44.77.84,1.89,1.28,3.02,1.19h.17c1.51.03,2.96.62,4.05,1.66,1.53,1.33,3.37,2.25,5.35,2.69.82.12,1.55.58,1.99,1.28.34.59.82,1.19,1.19,1.74.49.43.55,1.18.12,1.67-.18.21-.43.34-.7.39l-.92.45c.25.47.53.62.98.36.33-.2.69-.34,1.07-.41.29.04.57.17.77.39,0,0-.13.33-.19.51s-.12.45-.08.47c.17.11.38.16.58.14.17-.02.32-.1.43-.23.62-.71,1.7-.78,2.41-.16.06.05.11.11.16.16.11.11.31.17.31.25.12,1.35,1.06.81,1.62.57.58-.21,1.22-.17,1.77.11,1.42.62,2.9,1.11,4.39,1.62.45.12.77.53.78,1,.31,2.32-.42,4.65-1.99,6.38-.12.15-.28.27-.46.34-.65.28-.7.82-.71,1.42,0,1.51-.07,3.02-.23,4.53-.19.93-.51,1.83-.95,2.67-.33.68-.66,1.4-1.75,1.19-.35,0-.69.11-.96.32-.24.11-.45.27-.65.39h0ZM308.69,299.67c-.6,1.49-.97,3.12-1.48,4.67-.17.46-.39.9-.66,1.32q-.76,1.43-2.37,1.19c-1.24-.41-1.92-1.75-1.52-2.99,0-.01,0-.02.01-.03.4-.51.74-1.08,1.01-1.67.15-.65.15-1.32,0-1.97-.05-.96.5-1.84,1.39-2.21.23-.03.45-.13.62-.28.78-.78,1.57-1.59,2.3-2.37.17-.25.32-.52.44-.81.5,1.67.97,3.37.27,5.16ZM323.52,259.42c-.45-.59-1.17-.9-1.91-.82-2.57.34-4.98-.45-7.39-1.19-1.68-.46-3.28-1.17-4.74-2.11-1.21-.65-2.51-1.09-3.87-1.3.08.2.13.42.14.64-.31,1.87,1.09,2.76,2.18,3.83.47.45.9.92,1.42,1.46l3.22-.87c.8-.3,1.7.04,2.12.78.56.67,1.16,1.31,1.8,1.9.58.64.44.81-.23,1.29-1.64,1.19-3.56,2.09-4.74,3.77-.16.21-.36.39-.59.53-1.03.68-2.07,1.32-3.11,1.99-1.37.78-3.12.3-3.9-1.07-.07-.12-.13-.25-.18-.39-.45-1.53-1.22-2.94-2.26-4.14-.5-.73-.9-1.53-1.19-2.37-.41-.94-1.16-1.69-2.09-2.11-.82-.32-1.45-1-1.72-1.84-.41-1.19-1-2.3-1.48-3.46q-1.19.47-.84,1.64c.57,1.96,1.43,3.83,2.55,5.55,1.74,2.76,3.78,5.39,4.87,8.54.28.83.5,1.7.82,2.49.5,1.19,1.03,1.34,2.17.69.11-.09.23-.14.37-.17h4.4c-.17,1.2-.41,2.39-.71,3.56-.25.98-.72,1.88-1.39,2.63-1.01.88-2.09,1.67-3.22,2.37-.29.18-.53.43-.7.72-1.26,2.37-2.45,4.65-3.71,6.95-.31.58-.4,1.06,0,1.54,1.73,1.86,1.19,4.14,1.26,6.32,0,.25-.39.56-.69.72-1.4.63-2.65,1.54-3.68,2.69-.41.5-.69,1.08-.83,1.71-.22,1.87-.82,3.68-1.77,5.31-1.4,2.37-2.63,4.87-3.91,7.33-.21.55-.73.93-1.32.97l-3.72.15c-.53,0-1.07.17-1.62.2-.27.04-.54-.04-.75-.2-.46-.34-.84-.76-1.19-1.07.01-1.25-.31-2.47-.92-3.56-.24-.42-.52-.82-.83-1.19-.8-1.17-1.24-2.55-1.27-3.97-.07-.81-.31-1.59-.72-2.29-.93-1.43-1.51-3.05-1.71-4.74,0-.95.18-1.89.52-2.77.12-.39.28-.76.49-1.11.37-.76.44-1.63.19-2.44-.62-2.82-1.83-5.48-3.56-7.8-.4-.65-.4-1.47,0-2.12.25-.53.57-1.04.88-1.57.31-.52.3-.82-.26-1.02-.55-.16-.97-.62-1.06-1.19,0-.17-.47-.4-.7-.39-1.1.13-2.2-.27-2.96-1.07-.39-.39-1.24-.39-1.91-.43-.49.02-.97.12-1.43.28l-6.7,1.6c-1.09.25-2.23-.11-2.98-.94-.2-.23-.42-.43-.66-.6-.97-.59-1.58-1.64-1.62-2.77-.08-.51-.4-.96-.87-1.19-2.03-.65-2.3-2.49-2.86-4.09-.07-.5.07-1.01.39-1.4.52-.48.67-1.24.37-1.87-.74-1.69-.58-3.64.44-5.18.51-1.13,1.31-2.11,2.3-2.85.39-.24.5-.92.87-1.19,1.12-1.04,1.91-2.38,2.26-3.87.32-.61.77-1.13,1.32-1.54.81-.78,1.68-1.48,2.49-2.26.45-.41.76-.45,1.09.12.14.23.38.37.65.39,1.19-.14,2.48-.32,3.71-.49.36-.11.74-.19,1.11-.23,1.78.04,3.55-.34,5.16-1.11.39-.12.82-.09,1.19.08.13.06.13.56.11.84.01.86.43,1.66,1.13,2.16l1.81,1.75c.13.09.25.26.39.28,1.19.2,2.47.43,3.72.53.62.06,1.03-.23,1.19-.98.17-.56.83-1,1.26-1.48.03.09.06.18.11.26.26.28.55.52.87.72.67.36,1.39.65,2.12.87.54.08,1.09.08,1.62,0,.3-.03.6-.03.9,0,1.29.19,2.6.36,3.89.62.43.11.89-.03,1.19-.37,1.18-.59,1.75-1.95,1.36-3.21-.13-.55-.22-1.1-.27-1.66-.82-.32-1.74-.24-2.5.2-.92.61-2.15.51-2.95-.26-1.3-.81-2.26-2.08-2.67-3.56,1.26.62,1.77-.15,2.37-1.28-1.57.37-2.98.66-4.36,1.06-.47.11-.76.59-.65,1.06.02.1.06.19.12.27.11.16.16.34.14.53-.05.31-.14.62-.26.91-.39-.17-.97-.23-1.19-.53-.28-.5-.39-1.06-1.02-1.26-.1-.05-.17-.14-.19-.25.12-1.32-1.04-1.96-1.59-2.92-.12-.24-.59-.38-.92-.39-.86,0-1.67-.42-2.18-1.11-.19-.3-.43-.57-.71-.78-.44-.33-.97-.56-1.39-.06-.43.38-.46,1.03-.09,1.46.03.03.06.06.09.09.75.91,1.71,1.62,2.8,2.07.75.23,1.09.91,1.45,1.57-1.57.84-2.6.56-3.44-.87-.27-.38-.57-.75-.89-1.09-.52-.68-1.09-1.32-1.71-1.91-.82-.75-2.44-.81-2.63.64-.03.15-.07.3-.12.45l-.56-.17c-.97-.41-2.09.01-2.54.96-.2.31-.51.58-.74.87-.23.22-.42.49-.56.78-.27,1.18-1.19,2.1-2.37,2.37-1.57.27-3.15.4-4.74.39-.25,0-.66-.44-.69-.68-.13-1.08-.13-2.18,0-3.26.23-1.11,1.24-1.87,2.37-1.8h3.3c.4,0,.68-.13.63-.62-.02-.19-.02-.39,0-.58.23-1.29.17-1.45-1.01-2.15-.34-.2-.74-.34-1.09-.55-.17-.11-.39-.31-.37-.44.05-.21.19-.38.39-.45.41-.12.84-.2,1.27-.23,1.78.07,3.42-.95,4.14-2.57.36-.91,1.2-1.55,2.17-1.65,1.55-.25,1.85-.64,2.05-2.26.1-.41.25-.81.44-1.19h.32c.26.55.48,1.12.66,1.7.08.62.57,1.1,1.19,1.19.6.05,1.19.05,1.79,0,1.03-.13,2.04-.33,3.07-.47.37,0,.59,0,.72-.56s.59-.74.95-1.07.82-.52.84-1.19c.22-.73.88-1.24,1.65-1.26.33.08.61.28.79.56.2.37.36.77.47,1.19,1.1-.98,1.56-2.49,1.19-3.91-.41.13-.83.21-1.26.26-.59.08-1.2.08-1.79,0-1.71-.38-1.96-1.19-1.04-2.6.31-.5.68-1.52.51-1.62-.64-.47-1.19.12-1.68.53-1.13.88-1.96,2.1-2.37,3.47-.31,1.21-.81,2.36-1.47,3.41-.27.46-1.11.64-1.73.72-.23,0-.58-.5-.83-.82-.23-.35-.44-.72-.63-1.09-.04.08-.07.17-.08.26l-3.63.19c-.06-.17-.11-.34-.14-.51-.53-2.62-.76-2.26,1.75-3.26.74-.44,1.41-.99,1.97-1.65.58-.49,1.19-.98,1.71-1.47.11-.09.22-.19.31-.3,1.71-2.28,4.26-2.66,6.82-3.06,2.56-.4,4.52.62,6.72,1.19l3.66,1.07c-1.67,1.34-3.19,0-4.61.25,0,.08-.09.17-.08.19.82.89,1.69,1.72,2.62,2.49.62.31,1.38.06,1.69-.56.05-.09.08-.19.1-.28.14-.52.37-.77.9-.77.7,0,1.33-.44,1.6-1.09.27-.55.64-.79,1.19-.57-.08.64.2.92.82.72.24-.08.47-.19.68-.33.73-.46,1.6-.66,2.45-.56,1.21-.07,2.41-.31,3.56-.72,1.07-.28,1.65-.18,2.21.41,5.04,5.24,9.33,11.16,12.73,17.59,4.05,7.64,6.77,15.91,8.04,24.46.01.09.01.18,0,.27-1.78.45-2.64-.95-3.65-2h.04Z" style="fill: rgb(104, 225, 253);"/><path class="cls-13_network-80" d="M327.27,261.47c-1.92.4-2.79-1-3.79-2.05-.45-.59-1.17-.9-1.91-.82-2.57.36-4.97-.45-7.39-1.19-1.68-.47-3.28-1.18-4.74-2.12-1.2-.65-2.5-1.09-3.85-1.28.07.2.12.41.14.63-.31,1.87,1.08,2.76,2.18,3.83.46.44.9.92,1.42,1.46l3.24-.87c.8-.29,1.69.04,2.11.78.55.68,1.16,1.31,1.8,1.9.59.64.45.81-.23,1.29-1.64,1.19-3.56,2.07-4.74,3.76-.17.22-.37.4-.6.55l-3.12,1.99c-1.36.78-3.1.31-3.88-1.06-.07-.12-.13-.25-.18-.39-.45-1.53-1.21-2.94-2.25-4.15-.49-.74-.89-1.53-1.19-2.37-.4-.94-1.14-1.69-2.07-2.11-.82-.32-1.45-1-1.72-1.84-.4-1.19-.98-2.37-1.49-3.46q-1.19.47-.84,1.62c.58,1.97,1.44,3.84,2.56,5.56,1.75,2.76,3.78,5.39,4.87,8.54.28.83.5,1.68.82,2.49.5,1.19,1.03,1.35,2.17.68.11-.08.23-.13.36-.15h4.41c-.17,1.2-.41,2.39-.71,3.56-.25.97-.72,1.87-1.38,2.63-1.02.87-2.1,1.67-3.24,2.37-.29.19-.53.44-.71.74-1.24,2.37-2.43,4.66-3.7,6.96-.38.44-.38,1.1,0,1.54,1.72,1.85,1.19,4.14,1.24,6.31,0,.25-.39.56-.66.72-1.4.63-2.66,1.55-3.69,2.69-.41.5-.69,1.08-.82,1.71-.23,1.87-.84,3.68-1.79,5.31-1.38,2.37-2.62,4.87-3.89,7.33-.22.55-.73.92-1.32.97-1.26.08-2.51.13-3.77.23-.55,0-1.08.17-1.62.2-.26-.01-.5-.11-.69-.28-.45-.36-.85-.77-1.19-1.08,0-1.25-.32-2.47-.94-3.56-.25-.41-.52-.81-.82-1.19-.82-1.16-1.27-2.54-1.29-3.96-.06-.81-.3-1.59-.71-2.29-.93-1.43-1.52-3.05-1.72-4.74.01-.95.19-1.89.53-2.77.11-.42.28-.82.5-1.19.36-.76.43-1.63.18-2.43-.62-2.83-1.83-5.49-3.56-7.81-.4-.64-.4-1.46,0-2.1.27-.54.57-1.06.9-1.57.3-.46.28-.83-.28-1.03-.56-.14-.97-.61-1.03-1.19,0-.18-.47-.41-.71-.4-1.1.12-2.19-.27-2.95-1.07-.39-.39-1.26-.39-1.92-.43-.49.03-.97.12-1.43.28l-6.69,1.6c-1.09.25-2.24-.1-2.99-.94-.2-.22-.43-.42-.66-.6-.98-.6-1.58-1.64-1.61-2.79-.1-.49-.42-.91-.88-1.13-2.03-.65-2.3-2.49-2.85-4.1-.08-.5.06-1,.38-1.39.52-.48.67-1.24.37-1.89-.74-1.69-.57-3.63.45-5.17.51-1.13,1.29-2.1,2.29-2.83.39-.26.49-.94.87-1.24,1.11-1.04,1.9-2.38,2.28-3.87.31-.61.75-1.14,1.29-1.55.82-.77,1.7-1.48,2.51-2.24.44-.41.75-.47,1.09.12.14.22.38.36.64.38,1.19-.13,2.48-.32,3.71-.5.36-.1.74-.18,1.11-.21,1.79.02,3.56-.39,5.17-1.19.39-.11.82-.08,1.19.09.13.06.13.56.11.85.03.87.47,1.67,1.19,2.16.58.59,1.19,1.19,1.8,1.73.12.12.25.27.39.3,1.19.2,2.47.43,3.71.53.63.06,1.04-.23,1.26-.98.15-.57.81-1,1.19-1.48l.12.26c.26.28.56.52.88.72.67.37,1.38.66,2.11.88.54.05,1.09.03,1.62-.06.3-.02.59-.02.89,0,1.3.19,2.61.36,3.9.63.43.09.88-.06,1.19-.38,1.16-.6,1.73-1.95,1.35-3.2-.13-.55-.21-1.1-.26-1.66-.82-.33-1.75-.26-2.51.19-.93.61-2.15.5-2.95-.27-1.3-.79-2.25-2.04-2.67-3.5,1.19.63,1.78-.13,2.37-1.26-1.57.37-2.98.65-4.36,1.04-.47.11-.76.57-.65,1.04.02.1.07.2.13.29.1.16.15.35.14.55-.07.31-.16.61-.27.9-.39-.17-.96-.24-1.19-.53-.27-.49-.39-1.06-1.02-1.26-.1-.05-.17-.14-.19-.25.12-1.32-1.04-1.96-1.59-2.93-.25-.24-.58-.38-.92-.39-.86.01-1.68-.41-2.17-1.11-.2-.29-.45-.55-.74-.77-.43-.34-.96-.56-1.38-.06-.42.35-.48.98-.13,1.4.04.05.08.09.13.13.75.91,1.7,1.63,2.79,2.1.75.23,1.1.9,1.45,1.57-.95.77-2.35.62-3.12-.34-.13-.16-.24-.35-.32-.54-.26-.39-.56-.75-.88-1.09-.54-.67-1.11-1.31-1.72-1.92-.82-.74-2.44-.79-2.62.65-.04.15-.09.3-.14.45l-.53-.15c-.97-.42-2.09,0-2.55.95-.23.3-.48.59-.75.87-.23.23-.42.5-.55.79-.26,1.18-1.19,2.11-2.37,2.37-1.57.27-3.15.4-4.74.4-.23,0-.65-.44-.68-.69-.12-1.08-.12-2.17,0-3.25.22-1.11,1.24-1.88,2.37-1.8h3.3c.43,0,.69-.12.64-.62-.03-.19-.03-.38,0-.57.2-1.29.14-1.43-1.02-2.13-.36-.21-.75-.36-1.09-.56s-.38-.31-.37-.45c.05-.2.2-.37.39-.45.42-.12.85-.19,1.28-.21,1.83-.14,3.38-.74,4.13-2.56.35-.92,1.18-1.55,2.16-1.65,1.58-.26,1.85-.65,2.07-2.28.1-.41.24-.81.41-1.19h.34c.26.55.47,1.12.65,1.7.18.66.51,1.11,1.19,1.19.6.06,1.19.06,1.79,0,1.03-.12,2.05-.32,3.07-.46.38,0,.6-.07.72-.56s.59-.74.94-1.08.83-.51.84-1.19,1.08-1.34,1.66-1.26c.33.09.62.3.81.58.2.38.35.77.46,1.19,1.09-.98,1.55-2.49,1.19-3.91-.41.12-.83.21-1.26.27-.59.08-1.2.08-1.79,0-1.7-.38-1.96-1.19-1.04-2.58.31-.5.66-1.53.51-1.65-.63-.47-1.19.13-1.68.55-1.13.89-1.96,2.1-2.37,3.47-.32,1.21-.81,2.36-1.47,3.43-.27.44-1.11.62-1.73.71-.24,0-.59-.5-.83-.82-.23-.36-.45-.72-.64-1.1l-.08.27-3.56.19c-.06-.21-.12-.36-.15-.51-.52-2.62-.75-2.26,1.75-3.26.74-.44,1.41-.99,1.99-1.64l1.71-1.49c.11-.08.21-.17.3-.27,1.71-2.29,4.26-2.67,6.82-3.07,2.56-.4,4.53.6,6.73,1.19,1.19.32,2.29.68,3.65,1.08-1.66,1.32-3.19,0-4.61.24,0,.09-.09.17-.08.18.81.89,1.69,1.72,2.62,2.49.62.32,1.37.08,1.69-.54.05-.1.09-.2.11-.3.13-.51.34-.76.89-.76.71-.01,1.34-.45,1.6-1.1.28-.55.64-.78,1.19-.56-.09.64.2.91.83.71.23-.08.45-.19.65-.32.74-.46,1.61-.65,2.48-.56,1.19-.07,2.37-.31,3.49-.72.75-.35,1.63-.18,2.21.4,5.05,5.24,9.33,11.16,12.73,17.59,4.04,7.64,6.76,15.91,8.04,24.46.04.12.07.25.08.38Z"/><path class="cls-13_network-80" d="M205.71,231.49l-.57,3.27c.8.04,1.56-.36,1.99-1.03,1.34-1.9,2.73-3.75,4.1-5.62.21-.28.43-.57.62-.88.76-1.53,2.5-2.3,4.15-1.84.91.14,1.57.34,1.49,1.46,0,.15.41.46.66.49,1.11.13,1.67,0,3.56-.83.07.17.12.34.15.52.03.24.03.49,0,.74-.5,1.92.52,3.91,2.37,4.62l.36.19c-1.34,1.3-3.11,2.07-4.98,2.17-1.29,0-2.56.33-3.68.97-.94.44-1.9.81-2.89,1.1-.35.21-.66.47-.94.77l.12.25,3.69-.33c-.14.9,0,1.43.95,1.52.36,0,.68.51,1.13.88-1.6.31-2.37,2.05-4.41,1.64l1.58-1.47c-.75-.82-.92-.89-1.92-.27-1,.62-1.85,1.35-2.77,2.04-.24.18-.46.46-.72.51-1.65.3-2.44,1.65-3.49,2.7-.46.66-1.18,1.09-1.98,1.19-.32,0-.64.12-.88.33-.28.25-.47.6-.52.97.12,1.4-.65,2.73-1.92,3.32-1.13.61-2.2,1.32-3.21,2.11-.88.9-1.13,2.24-.62,3.39.39.8.39,1.74,0,2.54-.07.2-.56.37-.85.38s-.5-.31-.56-.52c-.26-1.02-.43-2.07-.69-3.09-.14-.35-.32-.68-.53-1l-.2.08v1.19l-.19.14c-.26-.3-.53-.59-.82-.87-.38-.37-.81-.69-1.28-.95-.49-.24-1.09-.05-1.34.44-.5.66-1.08,1.27-1.59,1.85-.42-.51-.87-1-1.34-1.46-.21-.16-.48-.23-.75-.18-.99.14-1.88.66-2.5,1.43-.67.8-1.4,1.53-2.21,2.19-.76.54-.99,1.56-.53,2.37.12.33.15.69.09,1.03-.39,1.98.82,3.92,2.76,4.45,1.02.35,2.15-.09,2.66-1.04.21-.44.36-.91.56-1.36.16-.52.71-.81,1.23-.65.03.01.07.02.1.04.33.34.48.8.41,1.27-.18.77-.41,1.53-.71,2.26-.26.83-.06,1.19.82,1.4.64.13,1.29.23,1.94.28.65-.01,1.2.51,1.21,1.16,0,.09,0,.18-.02.26-.08.96-.05,1.92.08,2.87.15.57.45,1.08.88,1.48.3.2.68.23,1.01.09.58-.39,1.31-.46,1.96-.19.26.09.53.16.79.21,1.19.28,1.48.08,2.26-.78.54-.48,1.14-.88,1.79-1.19.2-.05.42,0,.57.15.1.17.1.39,0,.56-.64.58-.28.87.28,1.1l1.38.58c-.88-1.43.3-1.93.82-2.79.21.12.42.27.6.43.77.84,1.89,1.28,3.04,1.19,1.56-.02,3.07.58,4.2,1.67,1.54,1.33,3.38,2.26,5.37,2.69.87.14,1.64.66,2.07,1.43.37.62.83,1.19,1.19,1.77.49.44.53,1.19.09,1.67-.18.2-.41.33-.68.38l-.92.45c.25.47.52.62,1,.36.32-.2.68-.34,1.06-.4.29.03.56.16.76.37,0,0-.12.34-.17.53s-.14.44-.09.47c.17.11.37.16.57.14.16-.03.31-.11.43-.23.61-.71,1.68-.8,2.39-.19.07.06.14.12.19.19.11.08.31.15.31.24.13,1.35,1.06.81,1.62.58.58-.22,1.22-.18,1.77.11,1.42.6,2.9,1.1,4.37,1.61.46.12.78.52.79,1,.32,2.32-.41,4.65-2,6.37-.11.16-.26.28-.44.37-.65.27-.71.81-.74,1.41.01,1.51-.06,3.02-.21,4.52-.19.94-.51,1.84-.96,2.68-.32.69-.64,1.4-1.74,1.19-.49-.07-1.11.4-1.6.74-.86.48-1.66,1.08-2.37,1.77-.37.62-.62,1.3-.74,2.02-.27,1.31-.63,2.59-1.07,3.85-.32.72-1.19,1.19-1.73,1.83-.85,1.16-2.45,1.48-3.69.75-.31.89.28,1.45.63,2.05.56.96.55.95-.36,1.6s-1.58,1.28-2.37,1.93c-.56.54-.79,1.34-.59,2.1,0,.66-.1,1.32-.27,1.96-.09.33-.13.68-.14,1.02.08.69.3,1.34.38,2.03.14,1.13.23,2.26.33,3.4,0,.43.17.71.69.74.25.07.46.24.57.47.31.64.56,1.3.83,1.93-.73.57-1.78.44-2.35-.29,0-.01-.02-.02-.02-.03-.41-.78-1.09-1.39-1.91-1.71-1.33-.58-2.4-1.63-3.01-2.95-.72-1.43-1.53-2.68-1.3-4.43.26-1.13-.36-2.28-1.45-2.68-.19-.06-.36-.49-.38-.76-.13-1.11-.19-2.23-.3-3.34-.21-2.37-.51-4.74-.65-7.11-.09-1.77,0-3.56,0-5.34v-2.37c-.17-2.1-1.61-3.89-3.63-4.51-1.13-.2-1.93-1.23-1.84-2.37.04-1-.51-1.92-1.4-2.37-1.18-.66-2.08-1.73-2.53-3.01-.15-.38-.39-.73-.69-1.01-.65-.61-.92-1.51-.71-2.37.01-.58-.03-1.16-.13-1.73-.08-.39-.11-.79-.09-1.19.15-1.14.56-2.22,1.19-3.18.7-1.03,1.28-2.13,1.73-3.3.51-1.28.08-2.75-1.03-3.56-.37-.2-.8-.22-1.19-.06-.77.47-1.75.41-2.47-.14-1.45-.93-2.64-2.22-3.46-3.73-.14-.23-.35-.4-.6-.49-.36-.13-.73-.21-1.11-.24-1.03-.07-1.98-.54-2.66-1.32-.82-.88-2.01-1.31-3.2-1.19-.16.03-.33.03-.49,0-2.37-.62-4.53-1.87-6.24-3.63-.51-.68-.71-1.54-.55-2.37,1.59-12.11,6.07-23.66,13.04-33.68,1.59-2.26,3.39-4.37,5.09-6.56.26-.33.53-.49.9-.21.51.31,1.13.39,1.71.24,1.39-.18,2.82-.11,4.17-.39,1.65-.35,3.26-.86,4.81-1.52,1.17-.66,1.96-1.82,2.15-3.14.11-.37.23-.74.34-1.1.4-1.34.4-1.33,1.79-1.02l2.83.64c-.79.27-1.61.55-2.37.87-.47.18-.53.49-.2.89.56.68,1.08,1.39,1.66,2.03.15.18.57.33.72.24,1.19-.69,2.37-.4,3.56-.49-.31.54-.68,1.05-1.1,1.51-.44.34-.96.56-1.51.65-1.41.28-2.85.47-4.27.7-.14,1-1.01,1.73-2.02,1.7-1.84.29-3.57,1.08-4.99,2.29-1.06.58-1.51,1.86-1.06,2.98.14.45.28,1.01,1.01.65.12,0,.36.07.52.15.68.34,1.34.74,2.03,1.08s1.19.72,1.89.46c.15-.07.33-.06.47.02Z"/><path class="cls-13_network-80" d="M227.48,212.45c1.74-.28,3.4-.51,5.04-.83.71-.19,1.4-.43,2.07-.74,1.75-.85,3.69-1.22,5.63-1.07,1.81.26,3.65.39,5.48.55.69.14,1.39-.1,1.86-.62.2-.24.7-.27,1.07-.34,1.43-.24,2.86-.5,4.3-.64.76-.07,1.52-.03,2.26.11,1.75.27,3.56.62,5.25.94.28.03.55.15.76.34-.72,0-1.46.08-2.18.17-.46.03-.91.14-1.33.32-.68.33-1.27.69-1.3,1.66-.02.96-.7,1.79-1.64,2-.95.35-1.89.74-2.8,1.19-.47.21-.47.49,0,.75.66.38,1.33.74,2.04,1.13q-1.1.45-3.43-.62l.98,1.62c-1.48.39-3.02.84-4.58,1.19-1.43.26-2.77.9-3.89,1.84-1.12.79-2.44,1.24-3.81,1.29-.72.13-1.32.27-1.3,1.19,0,.33-.34.74-.62,1.01-.36.36-.76.67-1.19.94-1.09.79-2.62.55-3.41-.54-.31-.42-.47-.94-.47-1.46-.1-.48-.13-.98-.08-1.47.14-.53.34-1.04.59-1.52.15-.23.34-.43.55-.6,2.03-2.18,1.58-4.48-1.03-5.93-1.09-.65-2.3-1.05-3.56-1.19-.47-.13-.91-.35-1.29-.65Z"/><path class="cls-13_network-80" d="M214.07,214.39c.59-1.02,1.24-1.33,2.28-.85,1,.52,2.17.61,3.24.24l.17.18c-.15.21-.27.56-.47.64-.5.2-1.06.24-1.57.41-.24.1-.42.3-.5.55,0,.13.24.44.43.49,2.04.6,4.09,1.19,6.13,1.74.19.1.33.28.37.5,0,.27-.05.54-.14.79-.32,1.46.08,1.99,1.58,2.02.03.52-.34.99-.85,1.08-.97.27-1.93.56-2.89.88-.44.14-.91.3-.77.95,0,.12-.12.3-.23.4-.86.58-2,.54-2.81-.11-.53-.58-.5-1.48.08-2.01.21-.19.46-.32.74-.36.58-.17,1.19-.2,1.77-.36.27-.07.51-.23.68-.46,0-.13-.2-.47-.38-.65-1.5-1.36-3.44-2.12-5.47-2.16-1.11-.07-2.23-.19-3.34-.31-.47,0-1.08,0-1.11-.72-.1-.55.26-1.07.81-1.17.08-.01.16-.02.24-.01.74-.03,1.48-.11,2.21-.23.32,0,.79-.28.84-.51.11-.52-.23-.87-.81-.88-.05.04-.09-.01-.2-.07Z"/><path class="cls-13_network-80" d="M308.42,294.43c.51,1.75.97,3.41.24,5.23-.6,1.52-.97,3.13-1.47,4.68-.18.46-.4.9-.66,1.32q-.77,1.45-2.37,1.19c-1.24-.42-1.91-1.76-1.49-3,0-.01,0-.02.01-.03.4-.52.73-1.08,1-1.67.15-.65.15-1.32,0-1.97-.05-.95.5-1.83,1.39-2.18.23-.04.45-.15.62-.31.78-.78,1.55-1.58,2.3-2.37.19-.27.35-.56.45-.88Z"/><path class="cls-13_network-80" d="M233.66,208.87c-1.37,1.1-3.01,1.83-4.74,2.1-2.4.4-4.69,1.3-6.73,2.63-.66.41-1.32.77-1.81-.26-.08-.19-.45-.28-.71-.32-.63-.07-1.26-.18-1.87-.34.18-.17.39-.31.62-.41.51-.17,1.06-.25,1.59-.4s1.26-.26,1.49-1.06c.14-.33.43-.58.78-.68,1.07-.24,2.17-.39,3.26-.56.67-.03,1.33-.12,1.98-.28,1.2-.47,2.49-.66,3.78-.57.39,0,.81-.09,1.19-.11s.77,0,1.19,0v.26Z"/><path class="cls-13_network-80" d="M263.91,231.9c-.46-.7-1.13-1.04-1.6-.72-1.36.92-1.47,1.19-.83,2.17l-2.7,1.02c-.19-.95.9-1.79,0-2.64.37-.65,1.07-1.04,1.81-1.01h1.07c.57,0,1.01-.2.92-.92-.03-.22.02-.45.13-.64.21-.32.46-.76.78-.83s.66.27,1.11.49c-.81.84-.47,1.3.26,1.67.17.08.32.22.41.38.19.57.45,1.11.77,1.61.49.4,1.04.72,1.62.95-.48.43-.99.82-1.52,1.19-.51.32-1.07.56-1.65.71-.47.06-.94.06-1.41,0v-.27l.98-.63c-.34-.41-.88-.78-.91-1.19-.04-.4.46-.84.74-1.33Z"/><path class="cls-13_network-80" d="M251.67,222.5c.34-.14.69-.32,1.04-.43,1.09-.3,2.19-.58,3.28-.85.53-.13,1.19-.13,1.33.45,0,.4-.19.78-.51,1.02-.67.41-1.37.76-2.11,1.03-.66.34-1.46.15-1.91-.44-.23-.27-.69-.34-1.06-.51l-.07-.27Z"/><path class="cls-13_network-80" d="M220.36,237.82c.86-1.24,2.08-2.19,3.5-2.72l-.7.62c.31.15.62.2.77.38s.81.84.72,1.11c-.14.58-.71.94-1.29.83-.96-.15-1.93-.15-3-.23Z"/></g><path class="cls-8_network-80" d="M291.4,338.03l-.12.9c-37.01,22.24-85.04,10.26-107.28-26.75-22.24-37.01-10.26-85.04,26.75-107.28,8.43-5.07,17.75-8.5,27.45-10.11-5.54,4.55-10.61,9.64-15.15,15.19-.88,1.09-1.79,2.22-2.66,3.39-.7.92-1.4,1.87-2.07,2.86-.5.72-1.01,1.48-1.51,2.25-1.84,2.82-3.51,5.76-4.98,8.79h0c-2.82,5.69-4.82,11.75-5.93,18.01-1.61,9.53-.79,19.32,2.37,28.45,1.58,4.64,3.64,9.11,6.13,13.33,3.79,6.49,8.15,12.62,13.04,18.33,29.5,34.36,63.95,32.64,63.95,32.64Z"/></g></svg>